<?xml version="1.0" encoding="utf-8"?>
<!-- Generator: Adobe Illustrator 22.1.0, SVG Export Plug-In . SVG Version: 6.00 Build 0)  -->
<svg version="1.1" id="Layer_1" xmlns="http://www.w3.org/2000/svg" xmlns:xlink="http://www.w3.org/1999/xlink" x="0px" y="0px"
	 viewBox="0 0 512 512" style="enable-background:new 0 0 512 512;" xml:space="preserve">
<style type="text/css">
	.st0{fill:url(#SVGID_1_);}
	.st1{fill:#2D8C90;}
	.st2{fill:#226572;}
	.st3{fill:#008283;}
	.st4{fill:url(#SVGID_2_);}
	.st5{fill:#7FCCCF;}
	.st6{fill:#5ABDBF;}
	.st7{fill:#5DAEB5;}
	.st8{fill:#266E7A;}
	.st9{fill:#159395;}
	.st10{fill:#0E999F;}
	.st11{fill:#26717E;}
	.st12{fill:#61BBC2;}
	.st13{fill:url(#SVGID_3_);}
	.st14{fill:url(#SVGID_4_);}
	.st15{fill:url(#SVGID_5_);}
	.st16{fill:url(#SVGID_6_);}
	.st17{fill:#5FB5BC;}
	.st18{fill:#37B1B2;}
	.st19{fill:#458F8F;}
	.st20{fill:url(#SVGID_7_);}
</style>
<g>
	<g>
		<linearGradient id="SVGID_1_" gradientUnits="userSpaceOnUse" x1="308.5729" y1="51.0527" x2="235.1684" y2="118.1905">
			<stop  offset="0" style="stop-color:#1C8D91"/>
			<stop  offset="1" style="stop-color:#216874"/>
		</linearGradient>
		<path class="st0" d="M360.9,106.9c-0.1-5.9-1.7-11.5-3.1-17.1c-1.4-5.7-3.7-11.3-6.6-16.6c-3.3-6.1-6.9-12.1-11-17.8
			c-5.1-7-11.2-12.8-17.6-18.4c-2.5-2.2-5.5-3.8-7.8-6.2c-2.4-2-5.1-3.5-7.7-5.1c-6.7-3.9-13.6-7.3-20.8-10.1
			c-5.7-2.2-11.4-4.1-17.3-5.5c-6.6-1.6-13.3-2.7-20.1-3.5c-3.2-0.4-6.5-0.5-9.7-0.9c-2.6-0.3-5.3,0.1-7.9,0.1c-2.8,0-5.7-0.3-8.5,0
			c-6.4,0.6-12.8,1.1-19.1,2.3c-3.3,0.8-6.5,1.7-9.6,3c-4.7,1.2-9,3.3-13.3,5.5c-11.7,5.8-22.4,13.3-32.1,22.1
			c-13.4,12.1-24.3,26.2-33.2,41.9c-6.9,12.3-12.5,25.2-16.8,38.7c-2,6.1-4.1,12.1-3.8,18.7c0.3,8.2,4.5,14.2,12.5,16.6
			c7.5,2.2,15.4,2.1,23.1,3c5.9,0.7,11.8,1.1,17.7,1.6c6.5,0.6,13,1.2,19.5,1.8c5.5,0.5,10.9,0.9,16.4,1.4c2.2,0.2,4.4,0.3,6.6,0.5
			c0.9,0.1,1.4,0.1,2.5,0.3c1.5,0.3,1.7,0.4,2-0.9c1-3.9,2.6-7.7,4.5-11.3c3.9-7.1,9.2-12.9,15.9-17.6l0,0c0,0,0,0,0,0
			c0.6-0.3,1.2-0.6,1.8-0.9c3.9-2.5,8.2-4.2,12.7-5.3c8.2-2,16.5-2.3,24.8-1.4c9.1,1,17.9,3,26.2,7.1c11.9,6,19.9,15.2,23.1,28.3
			c0.4,1.7,0.1,2.8-1.1,4c-4.9,5.1-10.3,9.6-15.8,14c-0.5,1.2-1.6,2-2.6,2.5c-3.6,2-6.2,5.3-9.8,7.2c-0.2,0.1-0.3,0.2-0.4,0.4
			c-0.8,0.8-1.1,1.5,0,2.4c1.3,1.1,2.4,2.3,2.5,4.1c0.2,2.5,0.2,2.5,2.8,2.9c0.2,0,0.5,0.1,0.7,0.1c0.6,0.1,1.4,0,1.7,0.6
			c0.6,1.2,1.7,2.1,2.4,3.3c0.3,0.6-0.3,1-0.8,1.3c-0.5,0.4-0.9,0.8-0.9,1.5c0,1.9,2.1,4.8,3.9,5.2c1.4,0.3,1.9,1,1.8,2.3
			c-0.1,1.4,0.3,2.7,0.8,4c0.5,1.3,1.4,2.8-0.1,4.1c-0.2,0.2-0.3,0.6,0,0.8c0.2,0.2,0.6,0.2,0.9,0.1c1-0.4,1.5-1.1,1.7-2.1
			c0.4-1.4,1-1.4,1.8-0.4c0.2,0.2,0.4,0.4,0.7,0.6c0.8,0.2,1.4-0.3,2-0.7c8.1-6.3,16-12.8,23.4-20c4.4-4.3,8.6-8.7,12.6-13.3
			c6.1-7.1,11.6-14.6,16.2-22.8c4.3-7.8,8-15.9,10.2-24.6c1.7-6.7,2.5-13.5,2.9-20.3C361.9,114.5,360.9,110.7,360.9,106.9z"/>
		<path class="st1" d="M372.3,325.1c0.8,4.6,2,9.1,2.6,13.7c0.7,5.3,1.1,10.6,1.1,16c0,5.1-0.2,10.1-0.8,15.1
			c-0.3,2.8-1.3,5.5-2,8.3c-1.1,4.5-3.3,8.6-5,12.9c-0.4,1-0.7,2-1.9,2.4c-0.7-0.8-0.1-1.5,0.2-2.2c2-4.2,3.8-8.5,4.9-13
			c1.2-4.9,2.3-10,2.5-15.1c0.2-6.4,0.4-12.8-0.8-19.1c-0.2-1.3-0.1-2.6-0.3-3.9c-0.2-1.5-0.8-2.8-2.4-3.2c-1.5-0.4-2.8-0.1-3.8,1.3
			c-0.8,1.1-2,1.2-3.2,1.2c-1.2,0-1.8,0.4-1.1,1.7c0.5,1,0.2,1.8-0.6,2.5c-1.2,1-2.5,1.9-4.1,1.8c-1.4-0.1-2.2,0.4-2.7,1.7
			c-0.5,1.2-1.4,1.6-2.7,1.6c-3.4,0.2-6.2,1.3-7.1,5c-0.3,1-1.1,1.7-2.1,1.9c-1.6,0.3-2.8,1.3-3.7,2.6c-0.8,1.2-1.9,1.7-3.4,1.4
			c-0.2,0-0.4,0-0.6-0.1c-3.4-0.2-3.4-0.2-4.2,3.1c-0.2,0.7-0.4,1.4-0.6,2.1c-0.4,1.1-1.1,1.7-2.3,1.8c-0.6,0-1.2-0.1-1.6,0.2
			c-1.7,1.4-3.3,2.7-5.7,2.6c-0.6,0-0.5,0.7-0.3,1.2c0.5,2-0.1,2.8-2.1,3c-0.9,0.1-1.9,0.1-2.8,0c-1.1,0-1.9,0.4-2.4,1.4
			c-0.6,1.3-1.6,2-3.1,1.9c-1.6-0.1-2.6,0.5-2.9,2.2c-0.3,1.3-1.3,1.8-2.6,1.9c-2.1,0.1-2.1,0.2-1.6,2.1c0.2,0.8-0.1,1.4-0.7,2
			c-1.2,1.1-2.6,1.9-4.3,1.9c-0.8,0-1.7,0-2.2,0.8c-0.8,1.2-1.9,1.5-3.2,1.4c-1.7-0.1-2.7,0.5-2.9,2.3c-0.2,2.4-1.4,3.9-4,3.9
			c-1,0-1.8,0.4-2.2,1.4c-0.7,1.6-1.9,2.1-3.6,2.1c-1.3,0-2,0.3-1,1.7c0.5,0.6,0.4,1.3-0.2,1.8c-0.6,0.5-1.2,0.3-1.7-0.1
			c-0.6-0.5-1.4-0.8-2.2-0.8c-2-0.1-2.3,0.1-2.8,2.2c-0.7,2.8-0.8,3-3.7,3c-1.4,0-2.4,0.4-3.1,1.6c-0.4,0.7-1,1.1-1.6,1.6
			c-0.8,0.6-1.3,1.4-1.6,2.4c-0.9,2.9-2.8,4.3-5.9,4.4c-1,0-1.9,0.1-2.6,1c-0.7,1-1.9,0.9-2.9,0.8c-1.4-0.1-2.5,0.3-3.2,1.6
			c-0.3,0.7-1,1.1-1.6,1.6c-0.8,0.6-1.3,1.4-1.6,2.4c-0.8,2.9-2.7,4.3-5.7,4.4c-1,0-1.8,0.1-2.3,1.1c-0.6,1.1-1.7,1.1-2.8,1.1
			c-2.7,0.1-2.7,0.1-3.3,2.7c-0.8,3.2-0.8,3.2-4.2,3.6c-0.9,0.1-1.6,0.4-1.9,1.2c-0.6,1.5-1.8,2.1-3.4,2.1c-1,0-1.7,0.2-1.2,1.6
			c0.6,1.6-0.1,2.6-1.8,2.8c-1.1,0.2-2.2,0-3.3,0.1c-1.7,0.1-2.3,0.9-2.1,2.5c0.1,0.8,0.3,1.5-0.4,2c-0.9,0.6-1.5,0-2.1-0.5
			c-0.4-0.3-1-0.9-1.4-0.3c-0.4,0.6,0.3,1,0.8,1.2c1.2,0.8,2.4,1.6,3.1,2.8c0.3,0.6,1,0.8,1.6,0.9c1.7,0.3,2.7,1.7,4,2.6
			c0.3,0.2,0.3,0.5,0,0.8c-2.5,0.2-4.3-1-6.1-2.5c-1.2-0.9-3-1-4.4-1.8c-4.2-2.5-8.2-5.2-11.7-8.7c0.5-0.8-0.2-1.1-0.5-1.5
			c-1.8-2.2-4-4.1-5.5-6.5c-0.2-0.3-0.4-0.6-0.6-0.9c-0.2-0.5-0.4-0.9-0.1-1.4c0.4-0.6,1-0.4,1.5-0.1c0.3,0.1,0.5,0.4,0.8,0.4
			c-1.6-2.6-0.8-4.2,2.3-4.5c0.3,0,0.6,0,0.9,0c5.5-0.1,4.1,0.5,5.7-4.3c0.7-2,2.1-3.3,3.3-4.8c0.5-0.6,1.3-0.6,2.1-0.5
			c1,0.1,2,0.2,2.9,0.6c1.7,0.7,3-0.3,4.3-1.1c0.6-0.3,0.6-0.9,0.4-1.4c-0.4-0.9,0-1.5,0.8-1.7c1.5-0.4,2.3-1.4,3-2.7
			c0.6-1.1,1.5-2.1,2.4-3c0.7-0.7,1.3-1.3,1.7-2.2c0.5-1.1,1.3-1.2,2.3-0.5c1.8,1.2,1.9,1.1,2.9-0.6c0.2-0.4,0.5-0.9,0.9-0.9
			c2.5,0,4-2.7,6.6-2.5c0.3,0,0.7-0.1,0.7-0.5c0-0.4-0.3-0.5-0.6-0.6c-1.1-0.3-2-0.6-1.3-2c0.5-1.2,1.4-1.9,2.8-1.5
			c0.9,0.2,1.8,0.5,2.7,0.6c1.6,0.3,3,0.3,3.9-1.4c-1.3-0.4-1.3-1.4-0.7-2.5c0.6-1.1,1.5-1.6,2.8-1.3c2.4,0.6,2.4,0.7,4.8-1.1
			c-1.2-0.6-2.4-0.5-3.6-0.6c-0.6,0-1.5,0.1-1.4-0.8c0.1-0.9,1.1-1.2,1.7-1c2.1,0.7,4-0.3,6-0.6c0.9-0.1,1.9-0.2,2.1-1.4
			c1.1-1,2.5-0.7,3.7-0.9c7.6-1.1,14.8-3.5,21.5-7.2c8-4.4,14.7-10.3,20.7-16.9c0.3-0.4,0.6-0.8,0.9-1.2c-3.2,3.9-6.7,7.4-10.6,10.5
			c-8.3,6.7-17.6,11.2-28,13.4c-10.6,2.3-21.2,2.1-31.8-0.5c-3.5-0.9-6.8-2.3-10.1-3.6c-0.7-0.3-1.3-0.8-2-0.1
			c-0.9,0.4-1.7,0-2.4-0.4c-10.5-6-18.9-14.3-25.3-24.5c-0.6-0.9-0.9-1.9-1.5-2.8c-1-1.5-1.6-1.7-3-0.8c-5.2,3.3-9.9,7-12.5,12.8
			c-0.3,0.7-0.6,1.3-1.2,1.8c-0.3,0.2-0.5,0.3-0.8-0.1c-0.2-1.5,0.7-2.7,1.4-3.9c3.2-5.5,7.6-9.9,13.2-13c1.3-0.7,1.9-1.6,1.8-3.1
			c-0.1-4.5-0.1-9,0-13.6c0-0.8-0.4-1.8,0.8-2.2c4.7,12.2,11.6,23,21.5,31.6c9,7.8,19.4,12.6,31.3,14.1c11.2,1.4,22.1,0.5,32.8-3.2
			c10.6-3.6,19.2-9.9,25.5-19.3c0.2-0.2,0.4-0.4,0.6-0.7c0.5-0.4,1.1-0.7,0.9-1.5c1-1.8,2-3.7,3-5.5c0.3-0.2,0.3-0.5,0.4-0.8
			c0.2-0.9,0.6-1.8,1-2.6c0.9-0.6,1.3-1.5,0.9-2.6c0.1-0.4,0.2-0.7,0.4-1.1c0.9-0.5,0.8-1.4,0.7-2.2c-0.1-0.5-0.1-1.1,0.3-1.5
			c0.1,0,0.2-0.1,0.2-0.3c0-0.1-0.1-0.1-0.2-0.1c0-1,0.2-2,0.6-3c0.7-0.3,0.1-1.6,1.1-1.4c0.9,0.2,0.6,1.2,0.7,1.9
			c0.3,3.2-0.4,6.4,0,9.1c0.4-1.2,1.4-2.4,3.2-3c1.9-0.6,3.2-2.4,5.2-3.1c0.6-0.2,0.7-1,0.9-1.6c0.4-1.3,1.2-1.9,2.6-2
			c2.1-0.2,2.6-0.7,2.9-2.6c0.4-2.5,0.4-2.5,2.9-2.6c3-0.2,5.7-1.6,8.4-2.8c0.6-0.3,0.9-1,1.1-1.7c0.3-1.5,1.4-2.2,2.8-2.1
			c1.7,0.1,2.7-0.4,3.7-2c1.2-1.9,3.3-3.2,5.4-4.1c2-0.8,3.6-2.1,5.1-3.5c2.3-2.2,5.1-3.2,7.6-4.8c0.6-0.3,1.2-0.5,1.8-0.9
			c1.1-0.8,1.4-1.7,0.8-3.1c-2.2-5.6-4.4-11.3-7-16.7c-0.2-0.4-0.3-0.8-0.2-1.3c1.2-1,1.5,0.2,1.8,0.9c1.9,3.6,3.5,7.4,5.1,11.1
			c3,7.1,5.3,14.4,7.6,21.7C372,321.4,372.8,323.2,372.3,325.1z"/>
		<path class="st2" d="M291.3,222.2c-15.9,11.7-32.8,21.8-50.5,30.5c-1.2,0.6-2.3,1.1-3.5,1.6c-0.6,0.3-1,0.6-0.9,1.4
			c-0.5,1.4-1.8,1.8-3,2.3c-4.2,1.9-8.2,4.2-12.6,5.9c-3.3,1.3-6.3,3.3-9.6,4.6c-2,0.8-4,1.9-6.2,2.4c-3.5,0.9-6.6,2.7-9.9,4
			c-3.4,1.3-6.8,2.5-10.2,3.8c-1.2,0.4-2,0.9-1.8,2.3c-1.9-0.5-2.6-1.5-2.7-3.6c-0.2-14-0.5-28-0.8-41.9c0-2.2-0.1-4.4-0.2-6.7
			c-0.1-1.1,0.3-1.5,1.4-1.7c11.9-3,23.6-6.5,35.2-10.6c13.7-4.9,27-10.6,39.8-17.3c5.2-2.7,10.3-5.8,15.4-8.8
			c0.2-0.2,0.6-0.1,0.7-0.5c5.2-3.4,10.3-6.9,15.3-10.7c0.1,1.7-1.4,2.2-2.4,3c-2.1,1.5-4.5,2.7-6.2,4.9c-0.7,0.9-1.9,1.3-2.9,1.8
			c-1.8,0.8-1.7,1.4-0.5,2.7c1.3,1.5,2.7,3.2,2.2,5.4c-0.2,1.1,0.2,1.1,1,1.2c1,0.1,2.1,0.2,3.1,0.4c0.2,0,0.4,0,0.5,0.1
			c1.1,1.4,2.3,2.7,3.2,4.2c0.4,0.6-0.3,1.3-1,1.5c-0.4,0.2-0.8,0.2-1,0.7c-0.3,0.6,1.8,4.8,2.5,4.9c0.6,0.2,1.2,0.3,1.8,0.4
			c0.9,0.1,1.6,0.7,1.5,1.6c-0.3,2.2,0.4,4.3,1.2,6.2c0.7,1.7,0.4,2.6-1.5,3.6c1.7,0,2.2-0.7,2.5-1.7c0.2-0.7,0.1-2,0.8-2.1
			c1.1-0.1,1.7,1,2.2,2c-0.6,0.5-1.3,1-1.9,1.5C292,221.7,291.7,222,291.3,222.2z"/>
		<path class="st3" d="M183.2,280.9c0-0.4-0.2-0.6-0.6-0.8c-0.9-0.5-0.4-1.2,0.2-1.3c3.4-0.6,52.7-22.9,53.5-23.1
			c0.3,0.4,0.7,0.4,1.1,0.4c1.9,1.6,4.3,2.6,6.4,4c1.8,0.4,3.4,1.4,5,2.2c0.8,0.4,1.6,0.8,2.5,1.2c11.3,5.9,23.3,10.1,35.7,12.8
			c6.3,1.4,12.8,2.1,19.3,2.3c8.8,0.2,17.5-0.3,26.1-2.6c9.5-2.5,18.6-6,26.8-11.5c0.3-0.2,0.6-0.4,0.9-0.6c0.4-0.3,3.2-1.8,3.7-1.5
			c0.1,0.1,0.2,0.3,0.2,0.5c-1,1.9-5.3,4.1-6.9,5.3c-2.3,1.8-4.6,3.5-7.1,5.1c-3.7,2.4-7.6,4.4-11.2,6.8c-2.7,1.8-5.5,3.4-8.4,4.6
			c-2.8,1.2-5.4,2.9-8.5,3.5c-1.6,0.3-3.1,1-4.5,1.7c-2.5,1.2-5.3,1.2-7.7,2.5c-3.5,1.9-7.5,1.6-11.1,2.8c-2.3,0.7-4.8,1.5-7.4,0.9
			c-0.4-0.1-0.7,0-1,0.3c-5,1.2-10.1,1.5-15.2,1.9c-8.1,0.6-16.2,0.6-24.3,0c-6.5-0.5-12.9-1.4-19.3-2.4c-9.8-1.6-19.3-4.1-28.8-7.2
			C196,286.5,189.5,284,183.2,280.9z"/>
		<path class="st3" d="M290.2,296.4c0.1-0.3,0.2-0.7,0.6-0.6c2.3,0.4,4.4-0.8,6.7-0.8c0.4,0,0.9,0,1.3-0.2c2.3-1,4.6-1.6,7.2-1.3
			c0.3,0,0.7,0,0.9-0.2c2.2-2,5-2.1,7.7-2.7c1.5-0.3,2.7-1.3,4.2-1.7c2.1-0.7,4.3-1.2,6.3-2.3c1.5-0.8,2.9-2.1,4.8-2
			c0.2,0,0.4,0,0.5-0.1c2.9-2.4,6.5-3.6,9.6-5.7c3.2-2.2,6.7-4.1,10.1-6.1c1.1,0.8,1.6,2.1,2.3,3.3c1.6,2.9,3.2,5.8,4.7,8.7
			c0.2,0.4,0.5,0.9,0.1,1.4c2,4.5,4.2,8.9,6,13.5c0.7,1.9,1.1,3.8,2.2,5.6c0.4,0.7-1.6,2.7-2.9,3.3c-3.1,1.4-6.5,2.3-8.5,5.4
			c-2.1,0.2-2.9,2.2-4.7,3c-2.4,1-5.1,2.1-6,5.2c-0.2,0.7-0.8,0.9-1.5,0.9c-0.8,0-1.6,0-2.4,0c-1.2,0-1.9,0.4-2,1.6
			c-0.2,1.4-0.9,2.1-2.4,2.6c-2.1,0.7-4.1,1.9-6.4,2.2c-1.7,0.2-3.2,1.6-3.7,3.3c-0.5,1.5-1.3,2.4-3.1,2.2c-1.4-0.2-2.1,0.4-2.3,1.9
			c-0.1,1.1-0.7,2.1-2.1,2.2c-0.9,0.1-1.7,0.5-2.2,1.5c-0.2,0.4-0.7,0.8-1.2,0.8c-2.8,0.4-3.9,2.4-4.6,4.8c0-4.3,0-8.5,0-12.9
			c-1-0.1-0.2,1.7-1.4,1.2c0.2-2.9,0.8-5.7,0.5-8.7c-1-8-3.9-15.2-8.9-21.6c-1.9-2.5-4.2-4.7-6.7-6.6
			C292,296.9,291.3,296.3,290.2,296.4z"/>
		<linearGradient id="SVGID_2_" gradientUnits="userSpaceOnUse" x1="319.6693" y1="487.1721" x2="246.9524" y2="349.1586">
			<stop  offset="0" style="stop-color:#3B8280"/>
			<stop  offset="1" style="stop-color:#86CED2"/>
		</linearGradient>
		<path class="st4" d="M413.9,354.3c-0.6-7.3-2-14.4-3.8-21.4c-0.1-0.2-0.1-0.5-0.3-0.7c0-0.2-0.1-0.5-0.1-0.7
			c-0.1-0.2-0.1-0.5-0.3-0.7c0-0.1,0-0.3-0.1-0.4c-0.2-0.2-0.1-0.6-0.3-0.8c-0.1-0.2-0.1-0.4-0.2-0.7c-0.1-0.2-0.1-0.5-0.3-0.7
			c0-0.1,0-0.3-0.1-0.4c-0.2-0.3,0-0.8-0.3-1.1l0,0c-0.2-0.2-0.1-0.6-0.3-0.8c-0.1-0.5-0.3-1-0.4-1.4c-0.3-0.3,0-0.8-0.4-1.1
			c-0.3-0.8-0.5-1.5-0.8-2.3c-0.2-0.2-0.1-0.5-0.3-0.7c0-0.1,0-0.2-0.1-0.4c-1.1-0.6-0.7-1.7-1-2.6c0-0.1-0.1-0.2-0.1-0.4
			c-0.1-0.2-0.1-0.5-0.3-0.7l0,0c0,0,0,0,0,0c-0.1-0.5-0.2-1.1-0.4-1.6c-3.9-9.4-8.5-18.5-13.8-27.2c-5.8-9.5-12.3-18.5-19.5-26.9
			c-0.7-0.8-1.6-1.4-1.6-2.6c-0.6,0-0.7,0.6-1,0.9c-1.4,1.5-3,2.9-4.8,3.9c-0.4,0.1-0.7,0.3-1,0.5c-0.1,0.1-0.3,0.1-0.4,0.2
			c-0.3,0.2-0.3,0.5-0.5,0.7c-3.6,3.2-7.6,5.8-11.6,8.6c0.3,0.6,0.5,1.1,0.8,1.7c2.3,3.8,4.4,7.7,6.3,11.7c0.5-0.2,0.8-0.2,1,0.4
			c2.6,5.3,5,10.7,7.1,16.2c2.8,7.4,5.4,14.8,7.1,22.5c0,0,0.1,0,0.1,0.1c-0.1,0.1-0.2,0.1-0.4,0.3c-0.3,2,0.6,3.7,1,5.6
			c2.1,10.6,2.8,21.2,2.2,32c-0.5,8.5-2.5,16.6-6,24.3c-0.9,1.9-1.2,4.2-2.9,5.7c-1.4,2.8-2.9,5.6-4.5,8.3c-0.9,1.5-1.5,3.3-2.4,4.7
			c-2.6,3.8-5.2,7.5-7.7,11.3c-1.4,2.1-3.4,3.8-4.4,6.1c-0.1,1.2-0.7,2.1-1.4,3c-4.2,5.1-8.9,9.6-14,13.8c-11.1,9.1-24,15-37.5,19.5
			c-13.7,4.6-27.9,6.6-42.4,6c-2.5-0.1-5.1-0.4-7.3-1.7c-2.1-0.9-4.4-1-6.6-1.5c-6.2-1.4-12.5-2.5-18.2-5.6
			c-0.5-0.3-1.1-0.4-1.8-0.4c-1.5,0.1-2.9-0.1-4.2-1.1c-1.4-1-3-1.7-4.6-2.4c-5-2.3-9.4-5.7-13.5-9.4c-7.1-6.5-13.3-13.8-18.2-22
			c-2.2-3.7-4.3-7.4-5.6-11.4c-0.9-2.9-2.2-5.8-2.2-9c0-1.9-0.9-3.6-1-5.4c-0.3-3.8-0.1-7.7-0.2-11.5c0-0.6,0.1-1.5-0.8-1.7
			c0.3-0.3,0.4-0.8,0.5-1.2c0.4-3.2,0.9-6.3,2.1-9.3c0.4-1,1-2,0.8-3.1c0.3-1.5,1-2.9,1.8-4.2c3.3-5.5,7.8-9.8,13.4-12.8
			c1.3-0.7,1.6-1.5,1.5-2.8c-0.1-4.7,0-9.5,0-14.2c0-0.7-0.2-1.4,0.3-2c0-0.9-0.6-0.7-1.2-0.7c-5.8,0.7-11.6,1.4-17.4,2.2
			c-8,1-16,2-24,3c-3.4,0.4-6.8,0.6-10.1,1.1c-7.4,1.2-14.8,2.3-22.2,2.7c-6.5,0.4-10.8,3.7-13.8,8.8c-4.1,7-5.6,14.8-5.9,22.9
			c-0.2,5.5,0.4,11,1.9,16.3c2.4,8.7,5.7,17,9.8,25c0,0,0,0,0,0l0,0c0.5,0.2,0.1,0.8,0.5,1c1.3,2.8,2.8,5.6,4.4,8.2
			c0.2,0.2,0.2,0.5,0.4,0.7c1.4,2.9,3.3,5.4,4.9,8.2c0.2,0.2,0.4,0.5,0.6,0.8c0.5,0.8,0.7,1.7,1.5,2.2c0.3,0.1,0.2,0.5,0.4,0.7
			c2,3.1,4.3,6.2,6.5,9.1c6.9,9.1,14.2,17.7,22.4,25.6c10.5,10.2,22.7,18,35.9,24.3c11.8,5.6,24.2,9.6,37,12.5
			c10.2,2.3,20.5,3.7,30.9,4.2c5.7,0.3,11.5,0.1,17.2-0.2c7.8-0.5,15.6-1.4,23.3-2.8c9.5-1.7,18.8-4.1,27.8-7.3
			c10.8-3.8,21.3-8.4,30.6-15c14.4-10.3,26.4-23,36.7-37.4c9.6-13.3,17-27.6,21.9-43.2c3.4-10.7,5.3-21.7,6-32.9
			C414.6,366.8,414.4,360.6,413.9,354.3z"/>
		<path class="st5" d="M410.5,101.5c-1.7-1.6-2.4-3.7-2.5-6C409.1,97.4,409.8,99.4,410.5,101.5z"/>
		<path class="st6" d="M405,212.2c0.2-1.6,0.9-3.1,1.4-4.7c0.2-0.6,0.6-0.9,1.2-0.9C407,208.6,406,210.5,405,212.2z"/>
		<path class="st1" d="M305.8,342.6c0.2,0,0.6,0,0.7,0.1c0.4,0.7-0.7,2.3-1.6,2.5C305.3,344.3,305.5,343.4,305.8,342.6z"/>
		<path class="st7" d="M406,319.9c-2.2-0.1-1.2-1.6-1-2.6C405.6,318,405.8,319,406,319.9z"/>
		<path class="st1" d="M306.9,339.2c1.3,0.5,0.1,1.3,0.2,2c0.1,0.7-0.6,0.1-1,0.3C306.5,340.7,306.4,339.9,306.9,339.2z"/>
		<path class="st8" d="M300.6,354.1c0.7,1.1,0,1.3-0.9,1.5C300,355.1,300.3,354.6,300.6,354.1z"/>
		<path class="st5" d="M414.6,115.2c-1.3-0.5-0.5-1.5-0.7-2.3C414.4,113.6,414.4,114.5,414.6,115.2z"/>
		<path class="st6" d="M397.9,225.1c0.1-0.8,0.4-1.4,1.1-1.8C398.8,224,398.6,224.7,397.9,225.1z"/>
		<path class="st5" d="M418.3,138.3c-0.5-0.7-0.3-1.5-0.3-2.2C418.5,136.7,418.3,137.5,418.3,138.3z"/>
		<path class="st1" d="M303.9,347.8c0.3,0.2,0.5,0.5,0.2,0.9c-0.2,0.2-0.4,0.1-0.6-0.1C303.6,348.2,303.6,347.9,303.9,347.8z"/>
		<path class="st5" d="M411.2,103.4c-0.9-0.2-0.6-1-0.6-1.5C411,102.2,411,102.8,411.2,103.4z"/>
		<path class="st6" d="M403.9,214.4c-0.4-0.7-0.1-1,0.6-1.2C404.3,213.7,404.1,214,403.9,214.4z"/>
		<path class="st6" d="M393.8,231.2c0-0.6,0.2-0.9,0.7-1.1C394.6,230.6,394.3,230.9,393.8,231.2z"/>
		<path class="st6" d="M394.9,229.6c0-0.5,0.3-0.9,0.7-1.1C395.7,229.1,395.4,229.4,394.9,229.6z"/>
		<path class="st6" d="M396.4,227.4c-0.1-0.5,0.2-0.9,0.7-1.1C397.2,226.8,396.9,227.2,396.4,227.4z"/>
		<path class="st5" d="M417.5,131.2c-0.4-0.4-0.3-1-0.3-1.5C417.7,130.1,417.6,130.7,417.5,131.2z"/>
		<path class="st5" d="M417.9,134.5c-0.5-0.4-0.3-1-0.3-1.5C418.1,133.4,417.9,134,417.9,134.5z"/>
		<path class="st5" d="M416.8,126c-0.4-0.3-0.3-0.7-0.3-1.1C416.8,125.2,416.9,125.6,416.8,126z"/>
		<path class="st7" d="M407.5,324.4c-0.4-0.3-0.4-0.7-0.4-1.1C407.6,323.5,407.6,324,407.5,324.4z"/>
		<path class="st7" d="M408.6,327.7c-0.4-0.3-0.4-0.7-0.3-1.1C408.7,326.9,408.7,327.3,408.6,327.7z"/>
		<path class="st5" d="M415.7,120.4c-0.4-0.3-0.3-0.8-0.3-1.2C415.8,119.6,415.7,120,415.7,120.4z"/>
		<path class="st5" d="M416,122.3c-0.4-0.3-0.3-0.7-0.3-1.2C416.2,121.4,416.1,121.9,416,122.3z"/>
		<path class="st5" d="M416.4,124.1c-0.4-0.3-0.3-0.7-0.3-1.2C416.5,123.3,416.5,123.7,416.4,124.1z"/>
		<path class="st7" d="M105.1,414.3c0.5,0.2,0.5,0.6,0.5,1C105.2,415.1,105.2,414.7,105.1,414.3z"/>
		<path class="st7" d="M115.3,432.4c0.5,0.1,0.6,0.4,0.6,0.8C115.6,433.1,115.4,432.8,115.3,432.4z"/>
		<path class="st5" d="M415.3,118.2c-0.3-0.2-0.3-0.5-0.2-0.8C415.3,117.6,415.3,117.9,415.3,118.2z"/>
		<path class="st9" d="M271.9,189.8c-0.1,0.4-0.3,0.5-0.7,0.5C271.5,190.1,271.7,190,271.9,189.8z"/>
		<path class="st7" d="M408.3,326.6c-0.3-0.2-0.4-0.5-0.3-0.8C408.2,326,408.3,326.3,408.3,326.6z"/>
		<path class="st7" d="M408.9,328.8c-0.3-0.2-0.3-0.4-0.3-0.7C409,328.2,409,328.5,408.9,328.8z"/>
		<path class="st7" d="M409.3,330.3c-0.3-0.2-0.3-0.5-0.3-0.8C409.4,329.7,409.4,330,409.3,330.3z"/>
		<path class="st7" d="M409.7,331.4c-0.3-0.2-0.3-0.4-0.3-0.7C409.7,330.9,409.7,331.1,409.7,331.4z"/>
		<path class="st6" d="M399.7,222.1c0-0.3,0.1-0.5,0.4-0.6C400.2,221.8,400,222,399.7,222.1z"/>
		<path class="st7" d="M410.1,332.9c-0.3-0.2-0.3-0.5-0.3-0.7C410.1,332.3,410.1,332.6,410.1,332.9z"/>
		<path class="st5" d="M412.3,107.1c-0.3-0.2-0.3-0.5-0.3-0.8C412.4,106.4,412.4,106.7,412.3,107.1z"/>
		<path class="st7" d="M406.4,321c-0.3-0.2-0.3-0.4-0.3-0.7C406.4,320.4,406.4,320.7,406.4,321z"/>
		<path class="st8" d="M307.3,337.4c0.1,0.1,0.3,0.1,0.4,0.2c-0.2,0.1-0.3,0.1-0.5,0.2C307.3,337.6,307.3,337.5,307.3,337.4z"/>
		<path class="st7" d="M404.9,316.9c-0.3-0.2-0.3-0.4-0.3-0.7C404.9,316.4,404.9,316.6,404.9,316.9z"/>
		<path class="st6" d="M400.1,221.5c0-0.3,0-0.6,0.3-0.8C400.5,221,400.4,221.3,400.1,221.5z"/>
		<path class="st6" d="M401.6,218.8c0-0.3,0.1-0.6,0.4-0.7C402,218.4,401.9,218.7,401.6,218.8z"/>
		<path class="st6" d="M396,228.1c0-0.3,0.1-0.5,0.4-0.6C396.4,227.7,396.3,227.9,396,228.1z"/>
		<path class="st6" d="M400.5,220.7c0-0.3,0.1-0.6,0.4-0.7C400.9,220.3,400.8,220.6,400.5,220.7z"/>
		<path class="st5" d="M413.4,110.4c-0.1-0.2-0.2-0.5-0.3-0.7C413.4,109.8,413.5,110.1,413.4,110.4z"/>
		<path class="st6" d="M402,218.1c0-0.3,0.1-0.6,0.4-0.8C402.4,217.7,402.3,218,402,218.1z"/>
		<path class="st5" d="M413.8,111.9c-0.3-0.2-0.3-0.4-0.3-0.7C413.7,111.3,413.9,111.6,413.8,111.9z"/>
		<path class="st5" d="M414.9,116.3c-0.3-0.2-0.3-0.5-0.2-0.8C414.9,115.7,415,116,414.9,116.3z"/>
		<path class="st6" d="M399,223.3c0-0.3,0.1-0.6,0.4-0.7C399.4,222.9,399.3,223.2,399,223.3z"/>
		<path class="st6" d="M402.4,217.4c0-0.3,0-0.6,0.4-0.8C402.8,217,402.6,217.2,402.4,217.4z"/>
		<path class="st7" d="M110,423.6c0.3,0.1,0.4,0.4,0.4,0.7C110.3,424,110.1,423.8,110,423.6z"/>
		<path class="st6" d="M403.4,215.4c0.1-0.2,0.2-0.4,0.3-0.7C403.8,215.1,403.8,215.3,403.4,215.4z"/>
		<path class="st5" d="M417.1,128.2c-0.3-0.2-0.3-0.5-0.2-0.8C417.2,127.6,417.2,127.9,417.1,128.2z"/>
		<path class="st7" d="M117.4,435.5c0.3,0.1,0.4,0.4,0.4,0.7C117.7,435.9,117.5,435.7,117.4,435.5z"/>
		<path class="st6" d="M407.6,206.6c0-0.3,0-0.6,0.3-0.8C407.9,206.2,407.9,206.5,407.6,206.6z"/>
		<path class="st10" d="M217.7,457c-1.5-1.2-2.5-3-4.7-3c-0.4,0-0.8-0.1-1-0.4c-0.7-1.9-2.4-2.7-4-3.7c-0.7-0.4-1.3-1.1-0.6-1.8
			c0.6-0.7,1.5-0.5,2.2-0.1c0.3,0.2,0.5,0.7,0.8,1c0.3,0.3,0.7,0.5,1.2,0.2c0.4-0.4,0.5-0.7,0.3-1.3c-0.8-2,0.2-3.5,2.4-3.5
			c1.1,0,2.2,0.1,3.3,0c1.8-0.1,2.2-0.9,1.3-2.5c-0.7-1.2-0.3-2,1-1.9c2,0.1,3.5-0.3,4-2.5c0.2-0.9,1.2-0.9,2.1-0.9c3,0,3-0.1,3.7-3
			c0.1-0.5,0.3-1,0.3-1.4c0-1.6,1-2,2.3-1.9c0.7,0,1.5,0,2.2,0c0.6,0,1.2-0.1,1.3-0.8c0.1-1.5,1.2-1.5,2.3-1.5
			c3.4,0,4.8-1.1,5.7-4.4c0.2-0.7,0.6-1.3,1.2-1.8c1-0.9,2.1-1.6,2.7-3c0.5-1,1.6-0.7,2.5-0.8c1.3-0.1,2.9,0.6,3.5-1.4
			c0.2-0.7,1.2-0.4,1.9-0.4c3.7,0,5.1-1,6.1-4.5c0.2-0.7,0.6-1.2,1.1-1.7c1.1-0.9,2.2-1.7,2.8-3.1c0.5-1,1.6-0.7,2.5-0.7
			c3,0,3,0,3.5-2.9c0.2-0.8-0.1-2.2,1.1-2.2c1.5,0,3.2-0.9,4.5,0.7c0.4,0.5,0.8,0.9,1.3,0.4c0.5-0.5,0.6-1.1-0.2-1.5
			c-0.6-0.3-0.9-0.8-0.7-1.5c0.3-0.9,1-0.8,1.7-0.7c1.9,0.2,3.3-0.1,3.9-2.3c0.4-1.6,2.3-1.1,3.4-1.3c1.5-0.2,2.1-0.7,2.2-2.1
			c0-0.2,0.1-0.4,0.1-0.5c0.8-3.3,0.8-3.3,4.3-3.4c0.8,0,1.6-0.1,1.9-0.9c0.4-1.4,1.3-1.5,2.4-1.3c2,0.3,3.3-0.8,4.6-1.9
			c0.8-0.6,0.7-1.2,0-1.9c-0.5-0.5-0.7-1-0.3-1.7c0.3-0.6,0.9-0.6,1.5-0.5c2.1,0.3,3.5-0.2,3.7-2.8c0.1-1.3,1.4-1.4,2.5-1.3
			c1.7,0.2,2.8-0.4,3.3-2.1c0.3-1,1.1-1.4,2.1-1.3c1.1,0.1,2.2,0.1,3.3,0c1.9-0.1,2.3-0.9,1.4-2.5c-0.7-1.1-0.3-2,1.1-1.9
			c1.9,0.1,3.5-0.1,4.5-2c0.4-0.8,1.4-0.7,2.2-0.6c1.6,0.2,2.3-0.6,2.6-2c0.3-1.3,0.6-2.5,0.8-3.8c0.1-0.9,0.5-1.3,1.4-1.3
			c1.2,0,2.4-0.2,3.5,0.1c1.4,0.4,2.2-0.1,2.9-1.2c1-1.4,2-2.6,4-2.7c1,0,1.6-0.8,1.9-1.8c0.9-3.3,3.4-5.3,6.8-5.2
			c1.6,0,2.7-0.4,3-2c0.3-1.3,1.1-1.6,2.2-1.4c1.9,0.3,3.3-0.6,4.7-1.7c0.8-0.6,1-1.2,0.2-2c-0.5-0.5-0.7-1-0.4-1.7
			c0.3-0.7,1-0.6,1.6-0.6c1.6,0.1,3-0.1,3.9-1.7c0.8-1.5,2.5-1,3.7-0.8c1.2,0.2,2.2,1.2,2.4,2.5c0.5,2.9,0.7,5.8,1.1,8.8
			c0.7,4.9,0.5,9.8,0.3,14.6c-0.2,4.1-0.3,8.4-2,12.3c0,0.1-0.1,0.2-0.1,0.3c-0.4,6.3-3.3,11.7-5.7,17.3c-0.2,0.4-0.2,0.8-0.3,1.2
			c-0.7,2.5-2.2,4.6-3.4,6.8c-0.9,1.8-2.2,3.4-2.8,5.5c-0.4,1.5-2,2.8-3,4.3c-2.9,4.2-5.9,8.4-8.9,12.5c-0.2,0.3-0.6,0.6-0.9,0.9
			c0,0.4-0.2,0.8-0.5,1.1c-0.2,0.3-0.4,0.6-0.6,0.9c-4.9,5.6-10.2,10.8-16.1,15.3c-4.6,3.5-9.4,6.8-14.7,9.3
			c-6.8,3.3-13.6,6.4-20.8,8.8c-8.7,2.9-17.6,4.8-26.8,5.8c-5.8,0.6-11.7,0.7-17.6,0.4c-0.8-0.3-1.6-0.2-2.4-0.2
			c-1.2-0.2-2.4,0-3.5-0.6c-2.5-0.5-5-1.1-7.5-1.4c-1.1-0.2-2.1-0.6-3.2-0.8c-3.2-0.6-6.3-1.8-9.5-2.4c-1.7-0.3-3.2-1.5-4.7-2.4
			C218.9,457,218.4,457,217.7,457z"/>
		<path class="st11" d="M167.6,382.7c0.1-4.8,1.3-9.4,3.4-13.7c1.8-2.1,2.6-4.8,4.4-7c2.8-3.4,6.4-5.9,10-8.3
			c1.6-1.1,2.7-0.3,3.4,1.1c2.1,4.3,4.9,8.1,8,11.7c4.5,5.2,9.4,10.1,15.5,13.5c1.7,1,3.1,2.5,5.1,2.8c0.8-0.2,1.5,0.1,2.1,0.4
			c6.1,3.1,12.6,4.6,19.3,5.5c0.5,0.1,1,0.2,1.5,0.2c1.4,0,2.8-0.1,4.1,0.2c2,0.4,4,0.4,6,0c1-0.1,2-0.4,2.9,0.4
			c0.5,0.1,1,0.3,0.3,0.8c-0.6,0.4-1.2,0.7-1.9,0.7c-2.2,0.2-4.3,1.7-6.6,0.6c-0.4-0.2-1.1,0.1-1.7,0.7c1.8,0.4,3.4,0,5,0.6
			c0.5,0.2,1.1,0.1,1.1,0.8c0,0.5-0.4,0.7-0.9,0.7c-0.6,0-1,0.4-1.5,0.7c-1.1,0.9-2.1,1.8-3.4,0.1c-0.5-0.6-1.4-0.2-2,0.2
			c-0.7,0.5-0.9,1.2-0.8,2c0.1,0.8,0.9,0.6,1.5,0.7c0.2,0,0.4,0.1,0.8,0.4c-1.8,0-2,2.4-3.7,2.2c-1.4-0.2-2.9-0.1-4.3-0.8
			c-1.1-0.6-2-0.2-2.5,1c-0.4,0.8-0.6,1.4,0.7,1.4c0.9-0.1,1.5,0.4,1.6,1.2c0.1,1.1-0.8,0.9-1.6,1c-1.3,0.2-2.6,0.2-3.3,1.5
			c-0.2,0.3-0.6,0.5-0.9,0.5c-1.5,0.1-2.9,0.1-3,2.2c0,0.7-2.3,0.8-2.9,0c-1.3-1.6-1.6-1-2.2,0.6c-0.5,1.4-2,2.3-2.9,3.6
			c-0.5,0.7-0.6,1.7-1.2,2.2c-0.9,0.7-1.5,2-3.1,1.8c-0.6-0.1-1.1,0.5-0.3,1.1c0.6,0.4,0.5,0.9,0.2,1.4c-0.5,0.8-3.6,2.1-4.6,1.9
			c-1-0.2-2-0.5-3.1-0.7c-1.3-0.2-2,0.2-3.1,1.2c-2.3,2-2.5,4.7-3.4,7.2c-0.3,0.8-0.8,1.2-1.7,1.2c-1.2,0-2.5,0-3.7,0
			c-0.8,0-1.5,0.1-2.2,0.4c-1.8,0.7-2,1.7-0.6,3c0.4,0.4,1.2,0.7,0.5,1.4c-0.7,0.7-1-0.2-1.5-0.5c-0.4-0.3-0.8-1-1.4-0.3
			c-0.4,0.5,0.2,0.9,0.4,1.3c1.8,2.8,4.3,5.1,6.5,7.6c0.4,0.4,0.7,0.8,1.1,1.2c-0.6,0.6-1-0.1-1.4,0.1c-4.4-3.8-8.3-8.1-11.9-12.6
			c-3-3.8-5.7-7.7-8-11.9c-2.1-3.9-4-7.7-5.2-12.1c-0.8-2.8-0.9-5.7-1.7-8.5c-1.2-4.6-0.6-9.3-0.8-14
			C167.9,384.1,168.2,383.3,167.6,382.7z"/>
		<path class="st12" d="M244.4,464.4c1.3,0,2.5,0,3.8,0c0.7,0.4,1.5-0.1,2.2,0.3c11.7,0.5,23.3-0.6,34.6-3.5
			c5.6-1.4,11.1-3.3,16.5-5.4c5.7-2.2,11.1-5,16.5-7.7c5.8-2.9,10.9-6.9,15.9-11c4.4-3.7,8.4-8,12.4-12.2c0.2-0.2,0.2-0.5,0.3-0.7
			c0.3-0.3,0.5-0.5,0.8-0.8c0.7,1.2-0.2,2-0.7,2.7c-7.2,8.5-15.3,16-25,21.7c-8.4,5-17.3,8.9-26.6,12.1c-6.3,2.2-12.9,3.6-19.5,4.8
			c-8,1.4-16,1.6-24,1.4C249.1,466.1,246.5,466.1,244.4,464.4z"/>
		<path class="st9" d="M179.7,19.6c-0.1,0.1-0.3,0.3-0.4,0.4c-0.1,0-0.2-0.1-0.3-0.1c0.1-0.1,0.2-0.3,0.4-0.4
			C179.4,19.5,179.5,19.6,179.7,19.6z"/>
		<g>
			<linearGradient id="SVGID_3_" gradientUnits="userSpaceOnUse" x1="402.2951" y1="217.1369" x2="381.7324" y2="153.4588">
				<stop  offset="0" style="stop-color:#20AFAE"/>
				<stop  offset="1" style="stop-color:#86CED2"/>
			</linearGradient>
			<polygon class="st13" points="402.4,217.4 402.4,217.4 402.4,217.4 			"/>
			<linearGradient id="SVGID_4_" gradientUnits="userSpaceOnUse" x1="401.7371" y1="217.3171" x2="380.1767" y2="150.5495">
				<stop  offset="0" style="stop-color:#20AFAE"/>
				<stop  offset="1" style="stop-color:#86CED2"/>
			</linearGradient>
			<polygon class="st14" points="402,218.1 402,218.1 402,218.1 			"/>
			<linearGradient id="SVGID_5_" gradientUnits="userSpaceOnUse" x1="399.0738" y1="218.1771" x2="385.1814" y2="175.1555">
				<stop  offset="0" style="stop-color:#20AFAE"/>
				<stop  offset="1" style="stop-color:#86CED2"/>
			</linearGradient>
			<polygon class="st15" points="400.1,221.5 400.1,221.5 400.1,221.5 			"/>
			<linearGradient id="SVGID_6_" gradientUnits="userSpaceOnUse" x1="342.039" y1="236.5946" x2="273.0356" y2="22.9069">
				<stop  offset="0" style="stop-color:#20AFAE"/>
				<stop  offset="1" style="stop-color:#86CED2"/>
			</linearGradient>
			<path class="st16" d="M418.3,138.3c-0.3-0.7,0.1-1.5-0.3-2.2c0-0.5,0-1-0.1-1.5c-0.3-0.5,0-1.1-0.3-1.5c0-0.6-0.1-1.2-0.1-1.8
				c-0.3-0.5,0.1-1-0.3-1.5c0-0.5-0.1-1-0.1-1.5c-0.1-0.3-0.1-0.6-0.2-0.8c0-0.5-0.1-0.9-0.1-1.4c-0.2-0.3,0-0.8-0.3-1.1
				c0-0.2,0-0.5-0.1-0.7c-0.2-0.4,0-0.8-0.3-1.2c0-0.2-0.1-0.5-0.1-0.7c-0.3-0.3,0-0.8-0.3-1.2c0-0.2-0.1-0.5-0.1-0.7
				c-0.2-0.4,0-0.8-0.3-1.2c0-0.3-0.1-0.7-0.1-1c-0.1-0.3-0.1-0.6-0.2-0.8c0-0.3-0.1-0.7-0.1-1c-0.1-0.3-0.1-0.6-0.2-0.8
				c0-0.1,0-0.2-0.1-0.3c-0.7-0.6-0.4-1.5-0.7-2.3c0-0.4-0.1-0.7-0.1-1.1c-0.1-0.2-0.1-0.5-0.3-0.7c0-0.2-0.1-0.5-0.1-0.7
				c-0.1-0.2,0-0.5-0.3-0.7c-0.3-0.9-0.5-1.7-0.8-2.6c-0.2-0.2-0.1-0.5-0.3-0.8c-0.3-1-0.6-1.9-0.9-2.9c-0.6-0.4-0.3-1.1-0.6-1.5
				c0-0.1,0-0.2-0.1-0.3c-1.2-1.9-1.9-3.9-2.5-6l0,0c-0.5-2.3-1.7-4.2-2.8-6.2c-4.1-7.9-9.3-15.1-14.7-22.1
				c-5.3-6.9-11.3-13.1-17.6-19c-3.4-3.2-7.1-6.2-10.5-9.5c-4.6-4.4-9.7-8.2-14.7-12.1c-3.2-2.4-6.7-4.7-10.3-6.7
				c-4.3-2.5-8.8-4.8-13.3-6.8c-4.6-2.1-9.4-3.7-14.3-5.3c-3.5-1.1-7-2-10.5-2.9c-5.2-1.3-10.4-2.2-15.7-3.1
				c-5-0.8-10.1-1.6-15.2-1.6c-9.5-0.1-19-0.7-28.4,0.8c-3.4,0.6-6.8,1.1-10.2,1.2c-3.9,0.2-7.6,1.2-11.3,2.1
				c-3.9,0.9-7.7,2.2-11.7,2.9c-1.1,0.2-2.3,0.2-3.3,0.9c0.7,0,1.4,0,2-0.1c6.5-0.9,12.9-1.7,19.4-1.7c5.4,0,10.9-0.2,16.4,0.2
				c4.1,0.3,8.2,0.8,12.3,1.2c5.2,0.6,10.4,1.6,15.4,2.9c5.3,1.4,10.5,3,15.6,5c10.6,4,20.6,9.2,29.9,15.6l0,0c0,0,0,0,0,0
				c0.4,0.4,0.7,0.9,1.1,1.2c6.4,4.4,12,9.6,17.4,15.1c5.7,5.8,10,12.6,14.2,19.5c2.7,4.5,5,9.2,7,14c1.3,3.1,2.5,6.2,3.2,9.3
				c0.7,3.1,1.5,6.1,2.1,9.3c0.8,4.9,1.1,9.9,1.5,14.9c0.4,5.1-0.3,10.2-1.1,15.3c-1.1,7.3-3,14.5-6,21.2
				c-2.7,6.3-5.9,12.3-9.6,18.1c-5.4,8.4-11.7,16.2-18.6,23.5c-7.6,8-15.8,15.3-24.4,22.1c-2.3,1.8-4.4,4-7.1,5.2
				c-1-0.2-1.5,0.7-2.1,1.2c-0.3,0.4-0.8,0.6-1.2,0.8c-0.4,0.2-0.9,0.5-1.3,0.8c-15.2,11.1-31.4,20.7-48.3,29.1
				c-1.3,0.7-2.7,1.1-4,1.8c-0.9,0.5-1.6,1-1.2,2.2c0.3,0.4,0.7,0.5,1.2,0.2c0,0.3,0.1,0.6,0.4,0.8c2.1,1.3,4.1,3,6.5,3.6
				c0.1,0,0.1,0,0.2,0c1.4,0.7,2.7,1.5,4.1,2.2c1.1-0.3,1.7,0.3,2.2,1.1c3.3,1.7,6.7,3.3,10.2,4.8c7.3,3.1,14.7,5.5,22.4,7.4
				c4.8,1.2,9.7,2,14.7,2.6c6,0.7,12.1,0.6,18.2,0.4c2-0.1,3.9-0.2,5.9-0.5c8.3-1.2,16.4-3.3,24.1-6.6c4.7-2,9.3-4.1,13.4-7.3
				c0.2-0.3,0.5-0.2,0.7-0.4c0.3-0.4,0.7-0.4,1.1-0.3c0.3-0.1,0.5-0.2,0.8-0.4l0,0c0,0,0.1,0,0.1-0.1c0,0,0-0.1,0-0.1
				c0.4-0.1,0.8-0.3,1.2-0.2c2.4-1.1,4.4-2.8,5.7-5.1c1-0.8,2.1-1.5,3-2.4c5.3-4.9,10.4-9.9,15-15.5c2.3-2.9,4.8-5.6,6.6-8.8
				c0.2-0.4,0.4-0.8,0.7-1.1c0.1-0.1,0.2-0.3,0.3-0.4c0.3-0.3,0.5-0.7,0.7-1.1c0.1-0.2,0.2-0.3,0.4-0.5c0.3-0.1,0.2-0.5,0.4-0.6l0,0
				c0.2-0.4,0.5-0.7,0.7-1.1c0.3-0.4,0.5-0.8,0.8-1.2c0.5-0.5,0.7-1.3,1.1-1.8l0,0c0.2-0.2,0.1-0.5,0.4-0.7c0.1-0.2,0.2-0.3,0.4-0.5
				c0.3-0.1,0.2-0.5,0.4-0.6c0.2-0.2,0.1-0.5,0.3-0.8l0,0c0.2-0.2,0.1-0.6,0.4-0.7c0.2-0.4,0.5-0.8,0.7-1.2c0.2-0.2,0.2-0.5,0.4-0.7
				c0.2-0.2,0.1-0.6,0.4-0.7c0.2-0.2,0.1-0.6,0.4-0.8c0.2-0.4,0.5-0.8,0.7-1.2c0.2-0.2,0.2-0.4,0.3-0.7c0.1-0.1,0.1-0.2,0.2-0.3
				c-0.1-0.5,0.2-0.9,0.6-1.2c0.2-0.3,0.3-0.7,0.5-1c0.9-1.9,1.1-4,2.6-5.6l0,0c0.2-0.2,0.1-0.5,0.3-0.8c0.1-0.1,0.1-0.2,0.1-0.4
				c0.4-0.8,0.9-1.5,1.2-2.3c2-5.1,3.7-10.3,5-15.6c2.9-11.2,4.4-22.6,4.6-34.2C418.7,148.4,418.7,143.3,418.3,138.3z"/>
		</g>
		<path class="st5" d="M403.9,96.5c-0.1,0-0.3-0.1-0.3-0.1c0-0.1,0.1-0.2,0.1-0.3c0.1,0,0.3,0.1,0.3,0.1
			C404.1,96.3,404,96.4,403.9,96.5z"/>
		<path class="st9" d="M291.3,222.2c0.2-0.4,0.6-0.7,1.1-0.7C292.2,222,291.8,222.2,291.3,222.2z"/>
		<path class="st17" d="M253.4,389.4c-1,0-2,0-3,0.1c-2,0.2-3.9,0.2-5.9,0c-1.5,0-3-0.1-4.5-0.1c-0.3-0.3-0.7-0.1-1.1-0.3
			c-6.8-0.7-13.3-2.3-19.4-5.4c-0.7-0.4-1.5-0.6-2.2-0.9c0-1.1,0.5-1.3,1.4-0.8c1.8,1,3.9,1.6,5.8,2.4c9,3.6,18.5,4.2,28,3.5
			c9.9-0.7,19.2-3.7,27.8-8.6c7.3-4.2,13.8-9.6,19.2-16.1c0.3-0.3,0.6-0.6,0.9-0.9c0.2-0.2,0.3-0.3,0.6-0.3
			c-2.6,3.8-5.8,7.1-9.2,10.3c-5,4.6-10.6,8.3-16.7,11.2c-5.6,2.7-11.6,4.5-17.8,5.4C256.1,388.9,254.7,388.7,253.4,389.4z"/>
		<path class="st11" d="M204.7,424.2c-0.2,0.8-0.9,1.3-1.7,1.4c-0.6,0.1-0.8-0.5-0.8-1c0.1-0.8,0.6-1.4,1.4-1.4
			C204.2,423.2,204.6,423.5,204.7,424.2z"/>
		<path class="st8" d="M367,309.6c0,0.2,0,0.5-0.4,0.5c-0.2,0-0.4-0.2-0.5-0.4c-0.1-0.2,0.1-0.5,0.4-0.5
			C366.7,309.2,366.9,309.3,367,309.6z"/>
		<path class="st8" d="M373.6,335.6c-0.1-0.1-0.1-0.2-0.1-0.3c0-0.1,0.1-0.2,0.1-0.3c0.1,0.1,0.1,0.2,0.1,0.3
			C373.7,335.4,373.6,335.5,373.6,335.6z"/>
		<path class="st8" d="M371.4,323.6c0,0-0.1,0.1-0.1,0.1c0,0-0.1-0.1-0.1-0.1c0,0,0.1-0.1,0.1-0.1
			C371.4,323.5,371.4,323.6,371.4,323.6z"/>
		<path class="st18" d="M248.6,262.7c1.1-0.9,1.8-0.5,2.2,1.1C250,263.4,249.3,263.1,248.6,262.7z"/>
		<path class="st18" d="M359.6,264.6c0.1-0.3,0.4-0.4,0.7-0.4C360.2,264.5,359.9,264.5,359.6,264.6z"/>
		<path class="st19" d="M250.4,464.8c-0.7-0.1-1.5,0.3-2.2-0.3C248.9,464.5,249.7,464.1,250.4,464.8z"/>
		<path class="st19" d="M346.6,424.3c0,0.3,0,0.5-0.3,0.7C346.3,424.7,346.3,424.5,346.6,424.3z"/>
		<path class="st10" d="M244.5,389.4c2,0,3.9,0,5.9,0C248.4,389.9,246.5,389.9,244.5,389.4z"/>
		<path class="st10" d="M238.9,389.1c0.4-0.1,0.8-0.1,1.1,0.3C239.6,389.4,239.2,389.4,238.9,389.1z"/>
	</g>
	<linearGradient id="SVGID_7_" gradientUnits="userSpaceOnUse" x1="285.7165" y1="380.0125" x2="354.7144" y2="480.0825">
		<stop  offset="0" style="stop-color:#078280"/>
		<stop  offset="1" style="stop-color:#86CED2"/>
	</linearGradient>
	<path class="st20" d="M188.4,352c0,0,12.3,37,61.6,37s61.9-41,61.6-49.3c-1.4-35.6-20.5-43.3-20.5-43.3s29.7-5.9,38.3-11.5
		c8.3-5.3,20.5-10.9,20.5-10.9S395.1,341,369,393c-27.4,54.7-72.5,79.4-124.5,72.5c-52-6.8-72.5-46.5-76.6-71.2
		C162.4,361.9,188.4,352,188.4,352z"/>
</g>
</svg>
