<?xml version="1.0" encoding="UTF-8"?>
<svg width="512px" height="512px" viewBox="0 0 512 512" version="1.1" xmlns="http://www.w3.org/2000/svg" xmlns:xlink="http://www.w3.org/1999/xlink">
    <!-- Generator: Sketch 60.1 (88133) - https://sketch.com -->
    <title>Artboard</title>
    <desc>Created with Sketch.</desc>
    <g id="Artboard" stroke="none" stroke-width="1" fill="none" fill-rule="evenodd">
        <g id="invision-seeklogo.com" fill-rule="nonzero">
            <path d="M465.586424,0 L46.4135758,0 C20.780606,0 0,20.780606 0,46.4135758 L0,465.586424 C0,491.219394 20.780606,512 46.4135758,512 L465.586424,512 C491.219394,512 512,491.219394 512,465.586424 L512,46.4135758 C512,20.780606 491.219394,0 465.586424,0" id="Path" fill="#DC395F"></path>
            <path d="M171.499023,161 C188.641243,161 203,147.79613 203,130.492322 C203,113.200032 188.641243,100 171.499023,100 C154.356804,100 140,113.200032 140,130.492322 C140,147.79613 154.356804,161 171.499023,161" id="Path" fill="#FFFFFF"></path>
            <path d="M105.888889,326.643893 C104.050669,334.468439 103.126707,342.917863 103.126707,349.810917 C103.126707,376.969778 117.857697,395 149.163722,395 C175.127845,395 196.175167,379.58378 211.329318,354.695436 L202.076104,391.82516 L253.631661,391.82516 L283.097524,273.672957 C290.462048,243.756486 304.732999,228.229652 326.372356,228.229652 C343.405489,228.229652 353.994177,238.81957 353.994177,256.30254 C353.994177,261.369478 353.532196,266.886636 351.692034,272.871484 L336.497121,327.179501 C334.194981,335.004049 333.278782,342.834417 333.278782,350.191276 C333.278782,375.974243 348.465931,394.833107 380.231995,394.833107 C407.393774,394.833107 429.029251,377.352078 441,335.467854 L420.746587,327.64913 C410.615997,355.710375 401.869411,360.783134 394.964927,360.783134 C388.058501,360.783134 384.374297,356.183884 384.374297,346.983445 C384.374297,342.84218 385.29826,338.244871 386.67644,332.710246 L401.411311,279.799467 C405.091634,267.375671 406.475636,256.358818 406.475636,246.236588 C406.475636,206.65587 382.534136,186 353.532196,186 C326.372356,186 298.748594,210.49246 284.941567,236.269605 L295.066332,190.001541 L216.347054,190.001541 L205.296385,230.754386 L242.126774,230.754386 L219.448929,321.532322 C201.637417,361.113039 168.922155,361.75538 164.816734,360.835531 C158.075301,359.316032 153.764123,356.756365 153.764123,347.998386 C153.764123,342.945032 154.684204,335.687144 156.986345,326.934986 L191.516533,190.001541 L104.050669,190.001541 L93,230.754386 L129.366466,230.754386 L105.888889,326.643893" id="Path" fill="#FFFFFF"></path>
        </g>
    </g>
</svg>