<?xml version="1.0" encoding="UTF-8"?>
<svg width="407px" height="407px" viewBox="0 0 407 407" version="1.1" xmlns="http://www.w3.org/2000/svg" xmlns:xlink="http://www.w3.org/1999/xlink">
    <!-- Generator: Sketch 60.1 (88133) - https://sketch.com -->
    <title>linkedin-in-icon-seeklogo.com</title>
    <desc>Created with Sketch.</desc>
    <g id="linkedin-in-icon-seeklogo.com" stroke="none" stroke-width="1" fill="none" fill-rule="evenodd">
        <path d="M376.881,0 L30.019,0 C13.458,0 0,13.138 0,29.346 L0,377.632 C0,393.839 13.458,407 30.019,407 L376.881,407 C393.475,407 406.989,393.839 406.989,377.632 L406.989,29.346 C406.989,13.138 393.475,0 376.881,0" id="Fill-4" fill="#0071A1"></path>
        <path d="M91.0169981,56 C110.324791,56 126,71.6950814 126,91.0309654 C126,110.372854 110.324791,126.067935 91.0169981,126.067935 C71.6322135,126.067935 56,110.372854 56,91.0309654 C56,71.6950814 71.6322135,56 91.0169981,56 L91.0169981,56 Z M60.7914524,347 L121.209547,347 L121.209547,152.624378 L60.7914524,152.624378 L60.7914524,347 Z" id="Fill-6" fill="#FFFFFE"></path>
        <path d="M159,152.818886 L216.796366,152.818886 L216.796366,179.36475 L217.622399,179.36475 C225.661991,164.099279 245.33497,148 274.669642,148 C335.718202,148 347,188.206706 347,240.504617 L347,347 L286.71155,347 L286.71155,252.569828 C286.71155,230.052033 286.325003,201.08273 255.382212,201.08273 C224.008926,201.08273 219.221528,225.626056 219.221528,250.958201 L219.221528,347 L159,347 L159,152.818886" id="Fill-7" fill="#FFFFFE"></path>
    </g>
</svg>