<?xml version="1.0" encoding="utf-8"?>
<!-- Generator: Adobe Illustrator 22.1.0, SVG Export Plug-In . SVG Version: 6.00 Build 0)  -->
<svg version="1.1" id="Layer_1" xmlns="http://www.w3.org/2000/svg" xmlns:xlink="http://www.w3.org/1999/xlink" x="0px" y="0px"
	 viewBox="0 0 512 512" style="enable-background:new 0 0 512 512;" xml:space="preserve">
<style type="text/css">
	.st0{fill:#6D6E71;}
	.st1{fill:#6ABF4B;}
	.st2{clip-path:url(#SVGID_2_);fill:url(#SVGID_3_);}
	.st3{clip-path:url(#SVGID_2_);fill:url(#SVGID_4_);}
	.st4{clip-path:url(#SVGID_2_);fill:url(#SVGID_5_);}
	.st5{clip-path:url(#SVGID_2_);fill:#551613;}
	.st6{clip-path:url(#SVGID_2_);fill:#211112;}
	.st7{clip-path:url(#SVGID_2_);fill:url(#SVGID_6_);}
	.st8{clip-path:url(#SVGID_2_);fill:url(#SVGID_7_);}
	.st9{clip-path:url(#SVGID_2_);fill:#371715;}
	.st10{clip-path:url(#SVGID_2_);fill:url(#SVGID_8_);}
	.st11{clip-path:url(#SVGID_2_);fill:url(#SVGID_9_);}
	.st12{fill:#E23D3B;}
	.st13{fill:url(#SVGID_10_);}
	.st14{fill:#2D8C90;}
	.st15{fill:#226572;}
	.st16{fill:#008283;}
	.st17{fill:url(#SVGID_11_);}
	.st18{fill:#7FCCCF;}
	.st19{fill:#5ABDBF;}
	.st20{fill:#5DAEB5;}
	.st21{fill:#266E7A;}
	.st22{fill:#159395;}
	.st23{fill:#0E999F;}
	.st24{fill:#26717E;}
	.st25{fill:#61BBC2;}
	.st26{fill:url(#SVGID_12_);}
	.st27{fill:url(#SVGID_13_);}
	.st28{fill:url(#SVGID_14_);}
	.st29{fill:url(#SVGID_15_);}
	.st30{fill:#5FB5BC;}
	.st31{fill:#37B1B2;}
	.st32{fill:#458F8F;}
	.st33{fill:url(#SVGID_16_);}
	.st34{fill:#848484;}
</style>
<g id="XMLID_1_">
	<g id="XMLID_2_">
		<polygon id="XMLID_4_" class="st0" points="-276,0 -497.9,128.2 -497.9,241.4 -276,112.4 -151.2,184 -176.1,198.4 -276,140.9 
			-362.9,191.2 -164.3,306.2 -54.1,241.8 -54.1,128.2 		"/>
		<polygon id="XMLID_3_" class="st1" points="-276,512 -54.1,384.1 -54.1,270.6 -276,399.6 -400.8,328 -375.9,313.6 -276,371.1 
			-189.1,320.8 -387.7,205.8 -497.9,270.2 -497.9,384.1 		"/>
	</g>
</g>
<g>
	<g>
		<defs>
			<polygon id="SVGID_1_" points="-580.6,429.5 -808.7,0 -1035.4,428.5 -986.2,502.6 -926,512 -906,429.8 -906,429.8 -734.6,429.8 
				-719.9,512 -645.4,503.5 -580.6,429.5 -580.6,429.5 			"/>
		</defs>
		<clipPath id="SVGID_2_">
			<use xlink:href="#SVGID_1_"  style="overflow:visible;"/>
		</clipPath>
		<linearGradient id="SVGID_3_" gradientUnits="userSpaceOnUse" x1="-705.6196" y1="526.8239" x2="-661.0976" y2="436.5449">
			<stop  offset="0" style="stop-color:#9A1F22"/>
			<stop  offset="0.1827" style="stop-color:#AF2626"/>
			<stop  offset="0.4079" style="stop-color:#C22D28"/>
			<stop  offset="0.5614" style="stop-color:#C92F29"/>
		</linearGradient>
		<polygon class="st2" points="-734.6,429.8 -719.9,512 -645.4,503.5 -580.9,429.8 		"/>
		<linearGradient id="SVGID_4_" gradientUnits="userSpaceOnUse" x1="-616.0599" y1="429.8206" x2="-616.0599" y2="515.8821">
			<stop  offset="0" style="stop-color:#A51E23"/>
			<stop  offset="1" style="stop-color:#A51E24"/>
		</linearGradient>
		<polygon class="st3" points="-576.3,429.8 -655.9,429.8 -645.2,515.9 -616.1,515.9 		"/>
		<linearGradient id="SVGID_5_" gradientUnits="userSpaceOnUse" x1="-970.6982" y1="398.438" x2="-970.6982" y2="512">
			<stop  offset="7.389160e-02" style="stop-color:#B32827"/>
			<stop  offset="0.3398" style="stop-color:#B02726"/>
			<stop  offset="0.6259" style="stop-color:#A42323"/>
			<stop  offset="0.9205" style="stop-color:#931C1F"/>
			<stop  offset="1" style="stop-color:#8D191D"/>
		</linearGradient>
		<polygon class="st4" points="-906,398.4 -1019.5,398.4 -1035.4,428.5 -986.2,502.6 -926,512 -906,430.1 		"/>
		<polygon class="st5" points="-992.3,430.1 -1051.9,430.1 -988.1,507.5 -985.9,503.3 		"/>
		<polygon class="st6" points="-992.3,430.1 -999.5,351.8 -1042.2,396.5 -1048.3,430.1 		"/>
		<linearGradient id="SVGID_6_" gradientUnits="userSpaceOnUse" x1="-827.7485" y1="277.7382" x2="-827.7485" y2="45.8497">
			<stop  offset="0" style="stop-color:#7E141B"/>
			<stop  offset="4.417330e-02" style="stop-color:#84161D"/>
			<stop  offset="0.262" style="stop-color:#9D1F22"/>
			<stop  offset="0.4764" style="stop-color:#AF2526"/>
			<stop  offset="0.684" style="stop-color:#BA2827"/>
			<stop  offset="0.8768" style="stop-color:#BE2928"/>
			<stop  offset="1" style="stop-color:#AB1F25"/>
		</linearGradient>
		<polygon class="st7" points="-656.6,285.8 -808.7,0 -998.9,359.6 		"/>
		<linearGradient id="SVGID_7_" gradientUnits="userSpaceOnUse" x1="-998.7731" y1="332.2459" x2="-655.8555" y2="332.2459">
			<stop  offset="0" style="stop-color:#4A1917"/>
			<stop  offset="0.3349" style="stop-color:#461715"/>
			<stop  offset="1" style="stop-color:#421413"/>
		</linearGradient>
		<polygon class="st8" points="-998.8,359.3 -683.8,234.7 -655.9,429.8 -992.3,429.8 		"/>
		<polygon class="st9" points="-684.5,233.4 -655.9,429.8 -574.3,429.8 -612.8,260.6 		"/>
		<linearGradient id="SVGID_8_" gradientUnits="userSpaceOnUse" x1="-821.5575" y1="0" x2="-821.5575" y2="312.9294">
			<stop  offset="0" style="stop-color:#DE482F"/>
			<stop  offset="0.4353" style="stop-color:#D9432D"/>
			<stop  offset="0.9029" style="stop-color:#CB342A"/>
			<stop  offset="1" style="stop-color:#C83029"/>
		</linearGradient>
		<polygon class="st10" points="-881.5,312.9 -761.6,265.5 -808.7,0 		"/>
		<linearGradient id="SVGID_9_" gradientUnits="userSpaceOnUse" x1="-820.3378" y1="429.8206" x2="-820.3378" y2="265.4531">
			<stop  offset="0" style="stop-color:#771416"/>
			<stop  offset="7.080448e-02" style="stop-color:#791416"/>
			<stop  offset="0.6234" style="stop-color:#87181B"/>
			<stop  offset="1" style="stop-color:#8D191D"/>
		</linearGradient>
		<polygon class="st11" points="-761.6,265.5 -734.6,429.8 -906,429.8 -881.5,312.9 		"/>
	</g>
</g>
<g>
	<path class="st12" d="M-1664.8,177.8c24.1,4.1,43.7,7,48.1,16.1c5,10.3-21.1,10.9-34.3,11.2c-63.1,1.2-101.3,2.3-103.3,21.7
		c-2.3,25,27,50.2,56.1,85.4c26.7,32.3,56.9,64,48.1,93.6c-10.9,37-60.8,44.6-108.6,44.6c-45.8,0-88.9-6.8-107.1-10
		c-22.6-4.1-19.4-14.1-13.2-17.3c6.8-3.5,45.2-3.8,71.9-5c22-1.2,86-1.2,96-16.1c12.3-17.9-17.6-49.3-45.2-81.6
		c-34.3-40.5-71.9-82.5-52-113C-1782.5,168.1-1707,170.8-1664.8,177.8"/>
	<path class="st12" d="M-1974.4,243.3c39.6-2.1,88.1,4.1,115.1,22.6c13.5,9.1,22.9,26.1,17.3,45.8c-15.6,55.2-74,122.1-203.7,173.5
		c-41.1,16.4-73.7,22.6-80.7,18.2c-7.3-4.7,14.1-41.1,20.5-53.4c20.8-39.3,46.7-77.5,71.9-112.4c9.4-12.9,23.5-35.2,36.7-33.5
		c11.7,1.8-2.1,25.2-10.9,40.5c-15,25.2-56.4,95.7-42.9,99.8c30.2,9.4,172-87.5,151.2-141.2c-9.7-25-71.3-27.3-110.1-27.3
		c-17.6,0-56.1,3.8-58.4-8.5C-2070.7,256.2-2009.7,245-1974.4,243.3"/>
	<path class="st12" d="M-1867.6,7.6c47.8-2.1,104.2,7.3,114.8,39c17.3,51.7-70.2,127.1-146.5,164.1c-18.8,9.1-29.9,11.7-34.6,10.9
		c-4.4-0.6-5.3-5-3.8-7.6c2.6-5.6,15-16.4,31.4-28.5c85.7-62.8,113.9-108.6,97.5-127.4c-10.3-12-54-20.3-98.9-20.3
		c-12.3,0-44.6,2.6-47.8-7.9C-1958.3,21.1-1915.1,9.6-1867.6,7.6"/>
</g>
<g>
	<g>
		<linearGradient id="SVGID_10_" gradientUnits="userSpaceOnUse" x1="-1287.4271" y1="51.0527" x2="-1360.8315" y2="118.1905">
			<stop  offset="0" style="stop-color:#1C8D91"/>
			<stop  offset="1" style="stop-color:#216874"/>
		</linearGradient>
		<path class="st13" d="M-1235.1,106.9c-0.1-5.9-1.7-11.5-3.1-17.1c-1.4-5.7-3.7-11.3-6.6-16.6c-3.3-6.1-6.9-12.1-11-17.8
			c-5.1-7-11.2-12.8-17.6-18.4c-2.5-2.2-5.5-3.8-7.8-6.2c-2.4-2-5.1-3.5-7.7-5.1c-6.7-3.9-13.6-7.3-20.8-10.1
			c-5.7-2.2-11.4-4.1-17.3-5.5c-6.6-1.6-13.3-2.7-20.1-3.5c-3.2-0.4-6.5-0.5-9.7-0.9c-2.6-0.3-5.3,0.1-7.9,0.1c-2.8,0-5.7-0.3-8.5,0
			c-6.4,0.6-12.8,1.1-19.1,2.3c-3.3,0.8-6.5,1.7-9.6,3c-4.7,1.2-9,3.3-13.3,5.5c-11.7,5.8-22.4,13.3-32.1,22.1
			c-13.4,12.1-24.3,26.2-33.2,41.9c-6.9,12.3-12.5,25.2-16.8,38.7c-2,6.1-4.1,12.1-3.8,18.7c0.3,8.2,4.5,14.2,12.5,16.6
			c7.5,2.2,15.4,2.1,23.1,3c5.9,0.7,11.8,1.1,17.7,1.6c6.5,0.6,13,1.2,19.5,1.8c5.5,0.5,10.9,0.9,16.4,1.4c2.2,0.2,4.4,0.3,6.6,0.5
			c0.9,0.1,1.4,0.1,2.5,0.3c1.5,0.3,1.7,0.4,2-0.9c1-3.9,2.6-7.7,4.5-11.3c3.9-7.1,9.2-12.9,15.9-17.6l0,0c0,0,0,0,0,0
			c0.6-0.3,1.2-0.6,1.8-0.9c3.9-2.5,8.2-4.2,12.7-5.3c8.2-2,16.5-2.3,24.8-1.4c9.1,1,17.9,3,26.2,7.1c11.9,6,19.9,15.2,23.1,28.3
			c0.4,1.7,0.1,2.8-1.1,4c-4.9,5.1-10.3,9.6-15.8,14c-0.5,1.2-1.6,2-2.6,2.5c-3.6,2-6.2,5.3-9.8,7.2c-0.2,0.1-0.3,0.2-0.4,0.4
			c-0.8,0.8-1.1,1.5,0,2.4c1.3,1.1,2.4,2.3,2.5,4.1c0.2,2.5,0.2,2.5,2.8,2.9c0.2,0,0.5,0.1,0.7,0.1c0.6,0.1,1.4,0,1.7,0.6
			c0.6,1.2,1.7,2.1,2.4,3.3c0.3,0.6-0.3,1-0.8,1.3c-0.5,0.4-0.9,0.8-0.9,1.5c0,1.9,2.1,4.8,3.9,5.2c1.4,0.3,1.9,1,1.8,2.3
			c-0.1,1.4,0.3,2.7,0.8,4c0.5,1.3,1.4,2.8-0.1,4.1c-0.2,0.2-0.3,0.6,0,0.8c0.2,0.2,0.6,0.2,0.9,0.1c1-0.4,1.5-1.1,1.7-2.1
			c0.4-1.4,1-1.4,1.8-0.4c0.2,0.2,0.4,0.4,0.7,0.6c0.8,0.2,1.4-0.3,2-0.7c8.1-6.3,16-12.8,23.4-20c4.4-4.3,8.6-8.7,12.6-13.3
			c6.1-7.1,11.6-14.6,16.2-22.8c4.3-7.8,8-15.9,10.2-24.6c1.7-6.7,2.5-13.5,2.9-20.3C-1234.1,114.5-1235.1,110.7-1235.1,106.9z"/>
		<path class="st14" d="M-1223.7,325.1c0.8,4.6,2,9.1,2.6,13.7c0.7,5.3,1.1,10.6,1.1,16c0,5.1-0.2,10.1-0.8,15.1
			c-0.3,2.8-1.3,5.5-2,8.3c-1.1,4.5-3.3,8.6-5,12.9c-0.4,1-0.7,2-1.9,2.4c-0.7-0.8-0.1-1.5,0.2-2.2c2-4.2,3.8-8.5,4.9-13
			c1.2-4.9,2.3-10,2.5-15.1c0.2-6.4,0.4-12.8-0.8-19.1c-0.2-1.3-0.1-2.6-0.3-3.9c-0.2-1.5-0.8-2.8-2.4-3.2c-1.5-0.4-2.8-0.1-3.8,1.3
			c-0.8,1.1-2,1.2-3.2,1.2c-1.2,0-1.8,0.4-1.1,1.7c0.5,1,0.2,1.8-0.6,2.5c-1.2,1-2.5,1.9-4.1,1.8c-1.4-0.1-2.2,0.4-2.7,1.7
			c-0.5,1.2-1.4,1.6-2.7,1.6c-3.4,0.2-6.2,1.3-7.1,5c-0.3,1-1.1,1.7-2.1,1.9c-1.6,0.3-2.8,1.3-3.7,2.6c-0.8,1.2-1.9,1.7-3.4,1.4
			c-0.2,0-0.4,0-0.6-0.1c-3.4-0.2-3.4-0.2-4.2,3.1c-0.2,0.7-0.4,1.4-0.6,2.1c-0.4,1.1-1.1,1.7-2.3,1.8c-0.6,0-1.2-0.1-1.6,0.2
			c-1.7,1.4-3.3,2.7-5.7,2.6c-0.6,0-0.5,0.7-0.3,1.2c0.5,2-0.1,2.8-2.1,3c-0.9,0.1-1.9,0.1-2.8,0c-1.1,0-1.9,0.4-2.4,1.4
			c-0.6,1.3-1.6,2-3.1,1.9c-1.6-0.1-2.6,0.5-2.9,2.2c-0.3,1.3-1.3,1.8-2.6,1.9c-2.1,0.1-2.1,0.2-1.6,2.1c0.2,0.8-0.1,1.4-0.7,2
			c-1.2,1.1-2.6,1.9-4.3,1.9c-0.8,0-1.7,0-2.2,0.8c-0.8,1.2-1.9,1.5-3.2,1.4c-1.7-0.1-2.7,0.5-2.9,2.3c-0.2,2.4-1.4,3.9-4,3.9
			c-1,0-1.8,0.4-2.2,1.4c-0.7,1.6-1.9,2.1-3.6,2.1c-1.3,0-2,0.3-1,1.7c0.5,0.6,0.4,1.3-0.2,1.8c-0.6,0.5-1.2,0.3-1.7-0.1
			c-0.6-0.5-1.4-0.8-2.2-0.8c-2-0.1-2.3,0.1-2.8,2.2c-0.7,2.8-0.8,3-3.7,3c-1.4,0-2.4,0.4-3.1,1.6c-0.4,0.7-1,1.1-1.6,1.6
			c-0.8,0.6-1.3,1.4-1.6,2.4c-0.9,2.9-2.8,4.3-5.9,4.4c-1,0-1.9,0.1-2.6,1c-0.7,1-1.9,0.9-2.9,0.8c-1.4-0.1-2.5,0.3-3.2,1.6
			c-0.3,0.7-1,1.1-1.6,1.6c-0.8,0.6-1.3,1.4-1.6,2.4c-0.8,2.9-2.7,4.3-5.7,4.4c-1,0-1.8,0.1-2.3,1.1c-0.6,1.1-1.7,1.1-2.8,1.1
			c-2.7,0.1-2.7,0.1-3.3,2.7c-0.8,3.2-0.8,3.2-4.2,3.6c-0.9,0.1-1.6,0.4-1.9,1.2c-0.6,1.5-1.8,2.1-3.4,2.1c-1,0-1.7,0.2-1.2,1.6
			c0.6,1.6-0.1,2.6-1.8,2.8c-1.1,0.2-2.2,0-3.3,0.1c-1.7,0.1-2.3,0.9-2.1,2.5c0.1,0.8,0.3,1.5-0.4,2c-0.9,0.6-1.5,0-2.1-0.5
			c-0.4-0.3-1-0.9-1.4-0.3c-0.4,0.6,0.3,1,0.8,1.2c1.2,0.8,2.4,1.6,3.1,2.8c0.3,0.6,1,0.8,1.6,0.9c1.7,0.3,2.7,1.7,4,2.6
			c0.3,0.2,0.3,0.5,0,0.8c-2.5,0.2-4.3-1-6.1-2.5c-1.2-0.9-3-1-4.4-1.8c-4.2-2.5-8.2-5.2-11.7-8.7c0.5-0.8-0.2-1.1-0.5-1.5
			c-1.8-2.2-4-4.1-5.5-6.5c-0.2-0.3-0.4-0.6-0.6-0.9c-0.2-0.5-0.4-0.9-0.1-1.4c0.4-0.6,1-0.4,1.5-0.1c0.3,0.1,0.5,0.4,0.8,0.4
			c-1.6-2.6-0.8-4.2,2.3-4.5c0.3,0,0.6,0,0.9,0c5.5-0.1,4.1,0.5,5.7-4.3c0.7-2,2.1-3.3,3.3-4.8c0.5-0.6,1.3-0.6,2.1-0.5
			c1,0.1,2,0.2,2.9,0.6c1.7,0.7,3-0.3,4.3-1.1c0.6-0.3,0.6-0.9,0.4-1.4c-0.4-0.9,0-1.5,0.8-1.7c1.5-0.4,2.3-1.4,3-2.7
			c0.6-1.1,1.5-2.1,2.4-3c0.7-0.7,1.3-1.3,1.7-2.2c0.5-1.1,1.3-1.2,2.3-0.5c1.8,1.2,1.9,1.1,2.9-0.6c0.2-0.4,0.5-0.9,0.9-0.9
			c2.5,0,4-2.7,6.6-2.5c0.3,0,0.7-0.1,0.7-0.5c0-0.4-0.3-0.5-0.6-0.6c-1.1-0.3-2-0.6-1.3-2c0.5-1.2,1.4-1.9,2.8-1.5
			c0.9,0.2,1.8,0.5,2.7,0.6c1.6,0.3,3,0.3,3.9-1.4c-1.3-0.4-1.3-1.4-0.7-2.5c0.6-1.1,1.5-1.6,2.8-1.3c2.4,0.6,2.4,0.7,4.8-1.1
			c-1.2-0.6-2.4-0.5-3.6-0.6c-0.6,0-1.5,0.1-1.4-0.8c0.1-0.9,1.1-1.2,1.7-1c2.1,0.7,4-0.3,6-0.6c0.9-0.1,1.9-0.2,2.1-1.4
			c1.1-1,2.5-0.7,3.7-0.9c7.6-1.1,14.8-3.5,21.5-7.2c8-4.4,14.7-10.3,20.7-16.9c0.3-0.4,0.6-0.8,0.9-1.2c-3.2,3.9-6.7,7.4-10.6,10.5
			c-8.3,6.7-17.6,11.2-28,13.4c-10.6,2.3-21.2,2.1-31.8-0.5c-3.5-0.9-6.8-2.3-10.1-3.6c-0.7-0.3-1.3-0.8-2-0.1
			c-0.9,0.4-1.7,0-2.4-0.4c-10.5-6-18.9-14.3-25.3-24.5c-0.6-0.9-0.9-1.9-1.5-2.8c-1-1.5-1.6-1.7-3-0.8c-5.2,3.3-9.9,7-12.5,12.8
			c-0.3,0.7-0.6,1.3-1.2,1.8c-0.3,0.2-0.5,0.3-0.8-0.1c-0.2-1.5,0.7-2.7,1.4-3.9c3.2-5.5,7.6-9.9,13.2-13c1.3-0.7,1.9-1.6,1.8-3.1
			c-0.1-4.5-0.1-9,0-13.6c0-0.8-0.4-1.8,0.8-2.2c4.7,12.2,11.6,23,21.5,31.6c9,7.8,19.4,12.6,31.3,14.1c11.2,1.4,22.1,0.5,32.8-3.2
			c10.6-3.6,19.2-9.9,25.5-19.3c0.2-0.2,0.4-0.4,0.6-0.7c0.5-0.4,1.1-0.7,0.9-1.5c1-1.8,2-3.7,3-5.5c0.3-0.2,0.3-0.5,0.4-0.8
			c0.2-0.9,0.6-1.8,1-2.6c0.9-0.6,1.3-1.5,0.9-2.6c0.1-0.4,0.2-0.7,0.4-1.1c0.9-0.5,0.8-1.4,0.7-2.2c-0.1-0.5-0.1-1.1,0.3-1.5
			c0.1,0,0.2-0.1,0.2-0.3c0-0.1-0.1-0.1-0.2-0.1c0-1,0.2-2,0.6-3c0.7-0.3,0.1-1.6,1.1-1.4c0.9,0.2,0.6,1.2,0.7,1.9
			c0.3,3.2-0.4,6.4,0,9.1c0.4-1.2,1.4-2.4,3.2-3c1.9-0.6,3.2-2.4,5.2-3.1c0.6-0.2,0.7-1,0.9-1.6c0.4-1.3,1.2-1.9,2.6-2
			c2.1-0.2,2.6-0.7,2.9-2.6c0.4-2.5,0.4-2.5,2.9-2.6c3-0.2,5.7-1.6,8.4-2.8c0.6-0.3,0.9-1,1.1-1.7c0.3-1.5,1.4-2.2,2.8-2.1
			c1.7,0.1,2.7-0.4,3.7-2c1.2-1.9,3.3-3.2,5.4-4.1c2-0.8,3.6-2.1,5.1-3.5c2.3-2.2,5.1-3.2,7.6-4.8c0.6-0.3,1.2-0.5,1.8-0.9
			c1.1-0.8,1.4-1.7,0.8-3.1c-2.2-5.6-4.4-11.3-7-16.7c-0.2-0.4-0.3-0.8-0.2-1.3c1.2-1,1.5,0.2,1.8,0.9c1.9,3.6,3.5,7.4,5.1,11.1
			c3,7.1,5.3,14.4,7.6,21.7C-1224,321.4-1223.2,323.2-1223.7,325.1z"/>
		<path class="st15" d="M-1304.7,222.2c-15.9,11.7-32.8,21.8-50.5,30.5c-1.2,0.6-2.3,1.1-3.5,1.6c-0.6,0.3-1,0.6-0.9,1.4
			c-0.5,1.4-1.8,1.8-3,2.3c-4.2,1.9-8.2,4.2-12.6,5.9c-3.3,1.3-6.3,3.3-9.6,4.6c-2,0.8-4,1.9-6.2,2.4c-3.5,0.9-6.6,2.7-9.9,4
			c-3.4,1.3-6.8,2.5-10.2,3.8c-1.2,0.4-2,0.9-1.8,2.3c-1.9-0.5-2.6-1.5-2.7-3.6c-0.2-14-0.5-28-0.8-41.9c0-2.2-0.1-4.4-0.2-6.7
			c-0.1-1.1,0.3-1.5,1.4-1.7c11.9-3,23.6-6.5,35.2-10.6c13.7-4.9,27-10.6,39.8-17.3c5.2-2.7,10.3-5.8,15.4-8.8
			c0.2-0.2,0.6-0.1,0.7-0.5c5.2-3.4,10.3-6.9,15.3-10.7c0.1,1.7-1.4,2.2-2.4,3c-2.1,1.5-4.5,2.7-6.2,4.9c-0.7,0.9-1.9,1.3-2.9,1.8
			c-1.8,0.8-1.7,1.4-0.5,2.7c1.3,1.5,2.7,3.2,2.2,5.4c-0.2,1.1,0.2,1.1,1,1.2c1,0.1,2.1,0.2,3.1,0.4c0.2,0,0.4,0,0.5,0.1
			c1.1,1.4,2.3,2.7,3.2,4.2c0.4,0.6-0.3,1.3-1,1.5c-0.4,0.2-0.8,0.2-1,0.7c-0.3,0.6,1.8,4.8,2.5,4.9c0.6,0.2,1.2,0.3,1.8,0.4
			c0.9,0.1,1.6,0.7,1.5,1.6c-0.3,2.2,0.4,4.3,1.2,6.2c0.7,1.7,0.4,2.6-1.5,3.6c1.7,0,2.2-0.7,2.5-1.7c0.2-0.7,0.1-2,0.8-2.1
			c1.1-0.1,1.7,1,2.2,2c-0.6,0.5-1.3,1-1.9,1.5C-1304,221.7-1304.3,222-1304.7,222.2z"/>
		<path class="st16" d="M-1412.8,280.9c0-0.4-0.2-0.6-0.6-0.8c-0.9-0.5-0.4-1.2,0.2-1.3c3.4-0.6,52.7-22.9,53.5-23.1
			c0.3,0.4,0.7,0.4,1.1,0.4c1.9,1.6,4.3,2.6,6.4,4c1.8,0.4,3.4,1.4,5,2.2c0.8,0.4,1.6,0.8,2.5,1.2c11.3,5.9,23.3,10.1,35.7,12.8
			c6.3,1.4,12.8,2.1,19.3,2.3c8.8,0.2,17.5-0.3,26.1-2.6c9.5-2.5,18.6-6,26.8-11.5c0.3-0.2,0.6-0.4,0.9-0.6c0.4-0.3,3.2-1.8,3.7-1.5
			c0.1,0.1,0.2,0.3,0.2,0.5c-1,1.9-5.3,4.1-6.9,5.3c-2.3,1.8-4.6,3.5-7.1,5.1c-3.7,2.4-7.6,4.4-11.2,6.8c-2.7,1.8-5.5,3.4-8.4,4.6
			c-2.8,1.2-5.4,2.9-8.5,3.5c-1.6,0.3-3.1,1-4.5,1.7c-2.5,1.2-5.3,1.2-7.7,2.5c-3.5,1.9-7.5,1.6-11.1,2.8c-2.3,0.7-4.8,1.5-7.4,0.9
			c-0.4-0.1-0.7,0-1,0.3c-5,1.2-10.1,1.5-15.2,1.9c-8.1,0.6-16.2,0.6-24.3,0c-6.5-0.5-12.9-1.4-19.3-2.4c-9.8-1.6-19.3-4.1-28.8-7.2
			C-1400,286.5-1406.5,284-1412.8,280.9z"/>
		<path class="st16" d="M-1305.8,296.4c0.1-0.3,0.2-0.7,0.6-0.6c2.3,0.4,4.4-0.8,6.7-0.8c0.4,0,0.9,0,1.3-0.2c2.3-1,4.6-1.6,7.2-1.3
			c0.3,0,0.7,0,0.9-0.2c2.2-2,5-2.1,7.7-2.7c1.5-0.3,2.7-1.3,4.2-1.7c2.1-0.7,4.3-1.2,6.3-2.3c1.5-0.8,2.9-2.1,4.8-2
			c0.2,0,0.4,0,0.5-0.1c2.9-2.4,6.5-3.6,9.6-5.7c3.2-2.2,6.7-4.1,10.1-6.1c1.1,0.8,1.6,2.1,2.3,3.3c1.6,2.9,3.2,5.8,4.7,8.7
			c0.2,0.4,0.5,0.9,0.1,1.4c2,4.5,4.2,8.9,6,13.5c0.7,1.9,1.1,3.8,2.2,5.6c0.4,0.7-1.6,2.7-2.9,3.3c-3.1,1.4-6.5,2.3-8.5,5.4
			c-2.1,0.2-2.9,2.2-4.7,3c-2.4,1-5.1,2.1-6,5.2c-0.2,0.7-0.8,0.9-1.5,0.9c-0.8,0-1.6,0-2.4,0c-1.2,0-1.9,0.4-2,1.6
			c-0.2,1.4-0.9,2.1-2.4,2.6c-2.1,0.7-4.1,1.9-6.4,2.2c-1.7,0.2-3.2,1.6-3.7,3.3c-0.5,1.5-1.3,2.4-3.1,2.2c-1.4-0.2-2.1,0.4-2.3,1.9
			c-0.1,1.1-0.7,2.1-2.1,2.2c-0.9,0.1-1.7,0.5-2.2,1.5c-0.2,0.4-0.7,0.8-1.2,0.8c-2.8,0.4-3.9,2.4-4.6,4.8c0-4.3,0-8.5,0-12.9
			c-1-0.1-0.2,1.7-1.4,1.2c0.2-2.9,0.8-5.7,0.5-8.7c-1-8-3.9-15.2-8.9-21.6c-1.9-2.5-4.2-4.7-6.7-6.6
			C-1304,296.9-1304.7,296.3-1305.8,296.4z"/>
		<linearGradient id="SVGID_11_" gradientUnits="userSpaceOnUse" x1="-1276.3308" y1="487.1721" x2="-1349.0476" y2="349.1586">
			<stop  offset="0" style="stop-color:#3B8280"/>
			<stop  offset="1" style="stop-color:#86CED2"/>
		</linearGradient>
		<path class="st17" d="M-1182.1,354.3c-0.6-7.3-2-14.4-3.8-21.4c-0.1-0.2-0.1-0.5-0.3-0.7c0-0.2-0.1-0.5-0.1-0.7
			c-0.1-0.2-0.1-0.5-0.3-0.7c0-0.1,0-0.3-0.1-0.4c-0.2-0.2-0.1-0.6-0.3-0.8c-0.1-0.2-0.1-0.4-0.2-0.7c-0.1-0.2-0.1-0.5-0.3-0.7
			c0-0.1,0-0.3-0.1-0.4c-0.2-0.3,0-0.8-0.3-1.1l0,0c-0.2-0.2-0.1-0.6-0.3-0.8c-0.1-0.5-0.3-1-0.4-1.4c-0.3-0.3,0-0.8-0.4-1.1
			c-0.3-0.8-0.5-1.5-0.8-2.3c-0.2-0.2-0.1-0.5-0.3-0.7c0-0.1,0-0.2-0.1-0.4c-1.1-0.6-0.7-1.7-1-2.6c0-0.1-0.1-0.2-0.1-0.4
			c-0.1-0.2-0.1-0.5-0.3-0.7l0,0c0,0,0,0,0,0c-0.1-0.5-0.2-1.1-0.4-1.6c-3.9-9.4-8.5-18.5-13.8-27.2c-5.8-9.5-12.3-18.5-19.5-26.9
			c-0.7-0.8-1.6-1.4-1.6-2.6c-0.6,0-0.7,0.6-1,0.9c-1.4,1.5-3,2.9-4.8,3.9c-0.4,0.1-0.7,0.3-1,0.5c-0.1,0.1-0.3,0.1-0.4,0.2
			c-0.3,0.2-0.3,0.5-0.5,0.7c-3.6,3.2-7.6,5.8-11.6,8.6c0.3,0.6,0.5,1.1,0.8,1.7c2.3,3.8,4.4,7.7,6.3,11.7c0.5-0.2,0.8-0.2,1,0.4
			c2.6,5.3,5,10.7,7.1,16.2c2.8,7.4,5.4,14.8,7.1,22.5c0,0,0.1,0,0.1,0.1c-0.1,0.1-0.2,0.1-0.4,0.3c-0.3,2,0.6,3.7,1,5.6
			c2.1,10.6,2.8,21.2,2.2,32c-0.5,8.5-2.5,16.6-6,24.3c-0.9,1.9-1.2,4.2-2.9,5.7c-1.4,2.8-2.9,5.6-4.5,8.3c-0.9,1.5-1.5,3.3-2.4,4.7
			c-2.6,3.8-5.2,7.5-7.7,11.3c-1.4,2.1-3.4,3.8-4.4,6.1c-0.1,1.2-0.7,2.1-1.4,3c-4.2,5.1-8.9,9.6-14,13.8c-11.1,9.1-24,15-37.5,19.5
			c-13.7,4.6-27.9,6.6-42.4,6c-2.5-0.1-5.1-0.4-7.3-1.7c-2.1-0.9-4.4-1-6.6-1.5c-6.2-1.4-12.5-2.5-18.2-5.6
			c-0.5-0.3-1.1-0.4-1.8-0.4c-1.5,0.1-2.9-0.1-4.2-1.1c-1.4-1-3-1.7-4.6-2.4c-5-2.3-9.4-5.7-13.5-9.4c-7.1-6.5-13.3-13.8-18.2-22
			c-2.2-3.7-4.3-7.4-5.6-11.4c-0.9-2.9-2.2-5.8-2.2-9c0-1.9-0.9-3.6-1-5.4c-0.3-3.8-0.1-7.7-0.2-11.5c0-0.6,0.1-1.5-0.8-1.7
			c0.3-0.3,0.4-0.8,0.5-1.2c0.4-3.2,0.9-6.3,2.1-9.3c0.4-1,1-2,0.8-3.1c0.3-1.5,1-2.9,1.8-4.2c3.3-5.5,7.8-9.8,13.4-12.8
			c1.3-0.7,1.6-1.5,1.5-2.8c-0.1-4.7,0-9.5,0-14.2c0-0.7-0.2-1.4,0.3-2c0-0.9-0.6-0.7-1.2-0.7c-5.8,0.7-11.6,1.4-17.4,2.2
			c-8,1-16,2-24,3c-3.4,0.4-6.8,0.6-10.1,1.1c-7.4,1.2-14.8,2.3-22.2,2.7c-6.5,0.4-10.8,3.7-13.8,8.8c-4.1,7-5.6,14.8-5.9,22.9
			c-0.2,5.5,0.4,11,1.9,16.3c2.4,8.7,5.7,17,9.8,25c0,0,0,0,0,0l0,0c0.5,0.2,0.1,0.8,0.5,1c1.3,2.8,2.8,5.6,4.4,8.2
			c0.2,0.2,0.2,0.5,0.4,0.7c1.4,2.9,3.3,5.4,4.9,8.2c0.2,0.2,0.4,0.5,0.6,0.8c0.5,0.8,0.7,1.7,1.5,2.2c0.3,0.1,0.2,0.5,0.4,0.7
			c2,3.1,4.3,6.2,6.5,9.1c6.9,9.1,14.2,17.7,22.4,25.6c10.5,10.2,22.7,18,35.9,24.3c11.8,5.6,24.2,9.6,37,12.5
			c10.2,2.3,20.5,3.7,30.9,4.2c5.7,0.3,11.5,0.1,17.2-0.2c7.8-0.5,15.6-1.4,23.3-2.8c9.5-1.7,18.8-4.1,27.8-7.3
			c10.8-3.8,21.3-8.4,30.6-15c14.4-10.3,26.4-23,36.7-37.4c9.6-13.3,17-27.6,21.9-43.2c3.4-10.7,5.3-21.7,6-32.9
			C-1181.4,366.8-1181.6,360.6-1182.1,354.3z"/>
		<path class="st18" d="M-1185.5,101.5c-1.7-1.6-2.4-3.7-2.5-6C-1186.9,97.4-1186.2,99.4-1185.5,101.5z"/>
		<path class="st19" d="M-1191,212.2c0.2-1.6,0.9-3.1,1.4-4.7c0.2-0.6,0.6-0.9,1.2-0.9C-1189,208.6-1190,210.5-1191,212.2z"/>
		<path class="st14" d="M-1290.2,342.6c0.2,0,0.6,0,0.7,0.1c0.4,0.7-0.7,2.3-1.6,2.5C-1290.7,344.3-1290.5,343.4-1290.2,342.6z"/>
		<path class="st20" d="M-1190,319.9c-2.2-0.1-1.2-1.6-1-2.6C-1190.4,318-1190.2,319-1190,319.9z"/>
		<path class="st14" d="M-1289.1,339.2c1.3,0.5,0.1,1.3,0.2,2c0.1,0.7-0.6,0.1-1,0.3C-1289.5,340.7-1289.6,339.9-1289.1,339.2z"/>
		<path class="st21" d="M-1295.4,354.1c0.7,1.1,0,1.3-0.9,1.5C-1296,355.1-1295.7,354.6-1295.4,354.1z"/>
		<path class="st18" d="M-1181.4,115.2c-1.3-0.5-0.5-1.5-0.7-2.3C-1181.6,113.6-1181.6,114.5-1181.4,115.2z"/>
		<path class="st19" d="M-1198.1,225.1c0.1-0.8,0.4-1.4,1.1-1.8C-1197.2,224-1197.4,224.7-1198.1,225.1z"/>
		<path class="st18" d="M-1177.7,138.3c-0.5-0.7-0.3-1.5-0.3-2.2C-1177.5,136.7-1177.7,137.5-1177.7,138.3z"/>
		<path class="st14" d="M-1292.1,347.8c0.3,0.2,0.5,0.5,0.2,0.9c-0.2,0.2-0.4,0.1-0.6-0.1C-1292.4,348.2-1292.4,347.9-1292.1,347.8z
			"/>
		<path class="st18" d="M-1184.8,103.4c-0.9-0.2-0.6-1-0.6-1.5C-1185,102.2-1185,102.8-1184.8,103.4z"/>
		<path class="st19" d="M-1192.1,214.4c-0.4-0.7-0.1-1,0.6-1.2C-1191.7,213.7-1191.9,214-1192.1,214.4z"/>
		<path class="st19" d="M-1202.2,231.2c0-0.6,0.2-0.9,0.7-1.1C-1201.4,230.6-1201.7,230.9-1202.2,231.2z"/>
		<path class="st19" d="M-1201.1,229.6c0-0.5,0.3-0.9,0.7-1.1C-1200.3,229.1-1200.6,229.4-1201.1,229.6z"/>
		<path class="st19" d="M-1199.6,227.4c-0.1-0.5,0.2-0.9,0.7-1.1C-1198.8,226.8-1199.1,227.2-1199.6,227.4z"/>
		<path class="st18" d="M-1178.5,131.2c-0.4-0.4-0.3-1-0.3-1.5C-1178.3,130.1-1178.4,130.7-1178.5,131.2z"/>
		<path class="st18" d="M-1178.1,134.5c-0.5-0.4-0.3-1-0.3-1.5C-1177.9,133.4-1178.1,134-1178.1,134.5z"/>
		<path class="st18" d="M-1179.2,126c-0.4-0.3-0.3-0.7-0.3-1.1C-1179.2,125.2-1179.1,125.6-1179.2,126z"/>
		<path class="st20" d="M-1188.5,324.4c-0.4-0.3-0.4-0.7-0.4-1.1C-1188.4,323.5-1188.4,324-1188.5,324.4z"/>
		<path class="st20" d="M-1187.4,327.7c-0.4-0.3-0.4-0.7-0.3-1.1C-1187.3,326.9-1187.3,327.3-1187.4,327.7z"/>
		<path class="st18" d="M-1180.3,120.4c-0.4-0.3-0.3-0.8-0.3-1.2C-1180.2,119.6-1180.3,120-1180.3,120.4z"/>
		<path class="st18" d="M-1180,122.3c-0.4-0.3-0.3-0.7-0.3-1.2C-1179.8,121.4-1179.9,121.9-1180,122.3z"/>
		<path class="st18" d="M-1179.6,124.1c-0.4-0.3-0.3-0.7-0.3-1.2C-1179.5,123.3-1179.5,123.7-1179.6,124.1z"/>
		<path class="st20" d="M-1490.9,414.3c0.5,0.2,0.5,0.6,0.5,1C-1490.8,415.1-1490.8,414.7-1490.9,414.3z"/>
		<path class="st20" d="M-1480.7,432.4c0.5,0.1,0.6,0.4,0.6,0.8C-1480.4,433.1-1480.6,432.8-1480.7,432.4z"/>
		<path class="st18" d="M-1180.7,118.2c-0.3-0.2-0.3-0.5-0.2-0.8C-1180.7,117.6-1180.7,117.9-1180.7,118.2z"/>
		<path class="st22" d="M-1324.1,189.8c-0.1,0.4-0.3,0.5-0.7,0.5C-1324.5,190.1-1324.3,190-1324.1,189.8z"/>
		<path class="st20" d="M-1187.7,326.6c-0.3-0.2-0.4-0.5-0.3-0.8C-1187.8,326-1187.7,326.3-1187.7,326.6z"/>
		<path class="st20" d="M-1187.1,328.8c-0.3-0.2-0.3-0.4-0.3-0.7C-1187,328.2-1187,328.5-1187.1,328.8z"/>
		<path class="st20" d="M-1186.7,330.3c-0.3-0.2-0.3-0.5-0.3-0.8C-1186.6,329.7-1186.6,330-1186.7,330.3z"/>
		<path class="st20" d="M-1186.3,331.4c-0.3-0.2-0.3-0.4-0.3-0.7C-1186.3,330.9-1186.3,331.1-1186.3,331.4z"/>
		<path class="st19" d="M-1196.3,222.1c0-0.3,0.1-0.5,0.4-0.6C-1195.8,221.8-1196,222-1196.3,222.1z"/>
		<path class="st20" d="M-1185.9,332.9c-0.3-0.2-0.3-0.5-0.3-0.7C-1185.9,332.3-1185.9,332.6-1185.9,332.9z"/>
		<path class="st18" d="M-1183.7,107.1c-0.3-0.2-0.3-0.5-0.3-0.8C-1183.6,106.4-1183.6,106.7-1183.7,107.1z"/>
		<path class="st20" d="M-1189.6,321c-0.3-0.2-0.3-0.4-0.3-0.7C-1189.6,320.4-1189.6,320.7-1189.6,321z"/>
		<path class="st21" d="M-1288.7,337.4c0.1,0.1,0.3,0.1,0.4,0.2c-0.2,0.1-0.3,0.1-0.5,0.2C-1288.7,337.6-1288.7,337.5-1288.7,337.4z
			"/>
		<path class="st20" d="M-1191.1,316.9c-0.3-0.2-0.3-0.4-0.3-0.7C-1191.1,316.4-1191.1,316.6-1191.1,316.9z"/>
		<path class="st19" d="M-1195.9,221.5c0-0.3,0-0.6,0.3-0.8C-1195.5,221-1195.6,221.3-1195.9,221.5z"/>
		<path class="st19" d="M-1194.4,218.8c0-0.3,0.1-0.6,0.4-0.7C-1194,218.4-1194.1,218.7-1194.4,218.8z"/>
		<path class="st19" d="M-1200,228.1c0-0.3,0.1-0.5,0.4-0.6C-1199.6,227.7-1199.7,227.9-1200,228.1z"/>
		<path class="st19" d="M-1195.5,220.7c0-0.3,0.1-0.6,0.4-0.7C-1195.1,220.3-1195.2,220.6-1195.5,220.7z"/>
		<path class="st18" d="M-1182.6,110.4c-0.1-0.2-0.2-0.5-0.3-0.7C-1182.6,109.8-1182.5,110.1-1182.6,110.4z"/>
		<path class="st19" d="M-1194,218.1c0-0.3,0.1-0.6,0.4-0.8C-1193.6,217.7-1193.7,218-1194,218.1z"/>
		<path class="st18" d="M-1182.2,111.9c-0.3-0.2-0.3-0.4-0.3-0.7C-1182.3,111.3-1182.1,111.6-1182.2,111.9z"/>
		<path class="st18" d="M-1181.1,116.3c-0.3-0.2-0.3-0.5-0.2-0.8C-1181.1,115.7-1181,116-1181.1,116.3z"/>
		<path class="st19" d="M-1197,223.3c0-0.3,0.1-0.6,0.4-0.7C-1196.6,222.9-1196.7,223.2-1197,223.3z"/>
		<path class="st19" d="M-1193.6,217.4c0-0.3,0-0.6,0.4-0.8C-1193.2,217-1193.4,217.2-1193.6,217.4z"/>
		<path class="st20" d="M-1486,423.6c0.3,0.1,0.4,0.4,0.4,0.7C-1485.7,424-1485.9,423.8-1486,423.6z"/>
		<path class="st19" d="M-1192.6,215.4c0.1-0.2,0.2-0.4,0.3-0.7C-1192.2,215.1-1192.2,215.3-1192.6,215.4z"/>
		<path class="st18" d="M-1178.9,128.2c-0.3-0.2-0.3-0.5-0.2-0.8C-1178.8,127.6-1178.8,127.9-1178.9,128.2z"/>
		<path class="st20" d="M-1478.6,435.5c0.3,0.1,0.4,0.4,0.4,0.7C-1478.3,435.9-1478.5,435.7-1478.6,435.5z"/>
		<path class="st19" d="M-1188.4,206.6c0-0.3,0-0.6,0.3-0.8C-1188.1,206.2-1188.1,206.5-1188.4,206.6z"/>
		<path class="st23" d="M-1378.3,457c-1.5-1.2-2.5-3-4.7-3c-0.4,0-0.8-0.1-1-0.4c-0.7-1.9-2.4-2.7-4-3.7c-0.7-0.4-1.3-1.1-0.6-1.8
			c0.6-0.7,1.5-0.5,2.2-0.1c0.3,0.2,0.5,0.7,0.8,1c0.3,0.3,0.7,0.5,1.2,0.2c0.4-0.4,0.5-0.7,0.3-1.3c-0.8-2,0.2-3.5,2.4-3.5
			c1.1,0,2.2,0.1,3.3,0c1.8-0.1,2.2-0.9,1.3-2.5c-0.7-1.2-0.3-2,1-1.9c2,0.1,3.5-0.3,4-2.5c0.2-0.9,1.2-0.9,2.1-0.9c3,0,3-0.1,3.7-3
			c0.1-0.5,0.3-1,0.3-1.4c0-1.6,1-2,2.3-1.9c0.7,0,1.5,0,2.2,0c0.6,0,1.2-0.1,1.3-0.8c0.1-1.5,1.2-1.5,2.3-1.5
			c3.4,0,4.8-1.1,5.7-4.4c0.2-0.7,0.6-1.3,1.2-1.8c1-0.9,2.1-1.6,2.7-3c0.5-1,1.6-0.7,2.5-0.8c1.3-0.1,2.9,0.6,3.5-1.4
			c0.2-0.7,1.2-0.4,1.9-0.4c3.7,0,5.1-1,6.1-4.5c0.2-0.7,0.6-1.2,1.1-1.7c1.1-0.9,2.2-1.7,2.8-3.1c0.5-1,1.6-0.7,2.5-0.7
			c3,0,3,0,3.5-2.9c0.2-0.8-0.1-2.2,1.1-2.2c1.5,0,3.2-0.9,4.5,0.7c0.4,0.5,0.8,0.9,1.3,0.4c0.5-0.5,0.6-1.1-0.2-1.5
			c-0.6-0.3-0.9-0.8-0.7-1.5c0.3-0.9,1-0.8,1.7-0.7c1.9,0.2,3.3-0.1,3.9-2.3c0.4-1.6,2.3-1.1,3.4-1.3c1.5-0.2,2.1-0.7,2.2-2.1
			c0-0.2,0.1-0.4,0.1-0.5c0.8-3.3,0.8-3.3,4.3-3.4c0.8,0,1.6-0.1,1.9-0.9c0.4-1.4,1.3-1.5,2.4-1.3c2,0.3,3.3-0.8,4.6-1.9
			c0.8-0.6,0.7-1.2,0-1.9c-0.5-0.5-0.7-1-0.3-1.7c0.3-0.6,0.9-0.6,1.5-0.5c2.1,0.3,3.5-0.2,3.7-2.8c0.1-1.3,1.4-1.4,2.5-1.3
			c1.7,0.2,2.8-0.4,3.3-2.1c0.3-1,1.1-1.4,2.1-1.3c1.1,0.1,2.2,0.1,3.3,0c1.9-0.1,2.3-0.9,1.4-2.5c-0.7-1.1-0.3-2,1.1-1.9
			c1.9,0.1,3.5-0.1,4.5-2c0.4-0.8,1.4-0.7,2.2-0.6c1.6,0.2,2.3-0.6,2.6-2c0.3-1.3,0.6-2.5,0.8-3.8c0.1-0.9,0.5-1.3,1.4-1.3
			c1.2,0,2.4-0.2,3.5,0.1c1.4,0.4,2.2-0.1,2.9-1.2c1-1.4,2-2.6,4-2.7c1,0,1.6-0.8,1.9-1.8c0.9-3.3,3.4-5.3,6.8-5.2
			c1.6,0,2.7-0.4,3-2c0.3-1.3,1.1-1.6,2.2-1.4c1.9,0.3,3.3-0.6,4.7-1.7c0.8-0.6,1-1.2,0.2-2c-0.5-0.5-0.7-1-0.4-1.7
			c0.3-0.7,1-0.6,1.6-0.6c1.6,0.1,3-0.1,3.9-1.7c0.8-1.5,2.5-1,3.7-0.8c1.2,0.2,2.2,1.2,2.4,2.5c0.5,2.9,0.7,5.8,1.1,8.8
			c0.7,4.9,0.5,9.8,0.3,14.6c-0.2,4.1-0.3,8.4-2,12.3c0,0.1-0.1,0.2-0.1,0.3c-0.4,6.3-3.3,11.7-5.7,17.3c-0.2,0.4-0.2,0.8-0.3,1.2
			c-0.7,2.5-2.2,4.6-3.4,6.8c-0.9,1.8-2.2,3.4-2.8,5.5c-0.4,1.5-2,2.8-3,4.3c-2.9,4.2-5.9,8.4-8.9,12.5c-0.2,0.3-0.6,0.6-0.9,0.9
			c0,0.4-0.2,0.8-0.5,1.1c-0.2,0.3-0.4,0.6-0.6,0.9c-4.9,5.6-10.2,10.8-16.1,15.3c-4.6,3.5-9.4,6.8-14.7,9.3
			c-6.8,3.3-13.6,6.4-20.8,8.8c-8.7,2.9-17.6,4.8-26.8,5.8c-5.8,0.6-11.7,0.7-17.6,0.4c-0.8-0.3-1.6-0.2-2.4-0.2
			c-1.2-0.2-2.4,0-3.5-0.6c-2.5-0.5-5-1.1-7.5-1.4c-1.1-0.2-2.1-0.6-3.2-0.8c-3.2-0.6-6.3-1.8-9.5-2.4c-1.7-0.3-3.2-1.5-4.7-2.4
			C-1377.1,457-1377.6,457-1378.3,457z"/>
		<path class="st24" d="M-1428.4,382.7c0.1-4.8,1.3-9.4,3.4-13.7c1.8-2.1,2.6-4.8,4.4-7c2.8-3.4,6.4-5.9,10-8.3
			c1.6-1.1,2.7-0.3,3.4,1.1c2.1,4.3,4.9,8.1,8,11.7c4.5,5.2,9.4,10.1,15.5,13.5c1.7,1,3.1,2.5,5.1,2.8c0.8-0.2,1.5,0.1,2.1,0.4
			c6.1,3.1,12.6,4.6,19.3,5.5c0.5,0.1,1,0.2,1.5,0.2c1.4,0,2.8-0.1,4.1,0.2c2,0.4,4,0.4,6,0c1-0.1,2-0.4,2.9,0.4
			c0.5,0.1,1,0.3,0.3,0.8c-0.6,0.4-1.2,0.7-1.9,0.7c-2.2,0.2-4.3,1.7-6.6,0.6c-0.4-0.2-1.1,0.1-1.7,0.7c1.8,0.4,3.4,0,5,0.6
			c0.5,0.2,1.1,0.1,1.1,0.8c0,0.5-0.4,0.7-0.9,0.7c-0.6,0-1,0.4-1.5,0.7c-1.1,0.9-2.1,1.8-3.4,0.1c-0.5-0.6-1.4-0.2-2,0.2
			c-0.7,0.5-0.9,1.2-0.8,2c0.1,0.8,0.9,0.6,1.5,0.7c0.2,0,0.4,0.1,0.8,0.4c-1.8,0-2,2.4-3.7,2.2c-1.4-0.2-2.9-0.1-4.3-0.8
			c-1.1-0.6-2-0.2-2.5,1c-0.4,0.8-0.6,1.4,0.7,1.4c0.9-0.1,1.5,0.4,1.6,1.2c0.1,1.1-0.8,0.9-1.6,1c-1.3,0.2-2.6,0.2-3.3,1.5
			c-0.2,0.3-0.6,0.5-0.9,0.5c-1.5,0.1-2.9,0.1-3,2.2c0,0.7-2.3,0.8-2.9,0c-1.3-1.6-1.6-1-2.2,0.6c-0.5,1.4-2,2.3-2.9,3.6
			c-0.5,0.7-0.6,1.7-1.2,2.2c-0.9,0.7-1.5,2-3.1,1.8c-0.6-0.1-1.1,0.5-0.3,1.1c0.6,0.4,0.5,0.9,0.2,1.4c-0.5,0.8-3.6,2.1-4.6,1.9
			c-1-0.2-2-0.5-3.1-0.7c-1.3-0.2-2,0.2-3.1,1.2c-2.3,2-2.5,4.7-3.4,7.2c-0.3,0.8-0.8,1.2-1.7,1.2c-1.2,0-2.5,0-3.7,0
			c-0.8,0-1.5,0.1-2.2,0.4c-1.8,0.7-2,1.7-0.6,3c0.4,0.4,1.2,0.7,0.5,1.4c-0.7,0.7-1-0.2-1.5-0.5c-0.4-0.3-0.8-1-1.4-0.3
			c-0.4,0.5,0.2,0.9,0.4,1.3c1.8,2.8,4.3,5.1,6.5,7.6c0.4,0.4,0.7,0.8,1.1,1.2c-0.6,0.6-1-0.1-1.4,0.1c-4.4-3.8-8.3-8.1-11.9-12.6
			c-3-3.8-5.7-7.7-8-11.9c-2.1-3.9-4-7.7-5.2-12.1c-0.8-2.8-0.9-5.7-1.7-8.5c-1.2-4.6-0.6-9.3-0.8-14
			C-1428.1,384.1-1427.8,383.3-1428.4,382.7z"/>
		<path class="st25" d="M-1351.6,464.4c1.3,0,2.5,0,3.8,0c0.7,0.4,1.5-0.1,2.2,0.3c11.7,0.5,23.3-0.6,34.6-3.5
			c5.6-1.4,11.1-3.3,16.5-5.4c5.7-2.2,11.1-5,16.5-7.7c5.8-2.9,10.9-6.9,15.9-11c4.4-3.7,8.4-8,12.4-12.2c0.2-0.2,0.2-0.5,0.3-0.7
			c0.3-0.3,0.5-0.5,0.8-0.8c0.7,1.2-0.2,2-0.7,2.7c-7.2,8.5-15.3,16-25,21.7c-8.4,5-17.3,8.9-26.6,12.1c-6.3,2.2-12.9,3.6-19.5,4.8
			c-8,1.4-16,1.6-24,1.4C-1346.9,466.1-1349.5,466.1-1351.6,464.4z"/>
		<path class="st22" d="M-1416.3,19.6c-0.1,0.1-0.3,0.3-0.4,0.4c-0.1,0-0.2-0.1-0.3-0.1c0.1-0.1,0.2-0.3,0.4-0.4
			C-1416.6,19.5-1416.5,19.6-1416.3,19.6z"/>
		<g>
			<linearGradient id="SVGID_12_" gradientUnits="userSpaceOnUse" x1="-1193.7048" y1="217.1369" x2="-1214.2676" y2="153.4588">
				<stop  offset="0" style="stop-color:#20AFAE"/>
				<stop  offset="1" style="stop-color:#86CED2"/>
			</linearGradient>
			<polygon class="st26" points="-1193.6,217.4 -1193.6,217.4 -1193.6,217.4 			"/>
			<linearGradient id="SVGID_13_" gradientUnits="userSpaceOnUse" x1="-1194.2629" y1="217.3171" x2="-1215.8234" y2="150.5495">
				<stop  offset="0" style="stop-color:#20AFAE"/>
				<stop  offset="1" style="stop-color:#86CED2"/>
			</linearGradient>
			<polygon class="st27" points="-1194,218.1 -1194,218.1 -1194,218.1 			"/>
			<linearGradient id="SVGID_14_" gradientUnits="userSpaceOnUse" x1="-1196.9263" y1="218.1771" x2="-1210.8186" y2="175.1555">
				<stop  offset="0" style="stop-color:#20AFAE"/>
				<stop  offset="1" style="stop-color:#86CED2"/>
			</linearGradient>
			<polygon class="st28" points="-1195.9,221.5 -1195.9,221.5 -1195.9,221.5 			"/>
			<linearGradient id="SVGID_15_" gradientUnits="userSpaceOnUse" x1="-1253.9611" y1="236.5946" x2="-1322.9644" y2="22.9069">
				<stop  offset="0" style="stop-color:#20AFAE"/>
				<stop  offset="1" style="stop-color:#86CED2"/>
			</linearGradient>
			<path class="st29" d="M-1177.7,138.3c-0.3-0.7,0.1-1.5-0.3-2.2c0-0.5,0-1-0.1-1.5c-0.3-0.5,0-1.1-0.3-1.5c0-0.6-0.1-1.2-0.1-1.8
				c-0.3-0.5,0.1-1-0.3-1.5c0-0.5-0.1-1-0.1-1.5c-0.1-0.3-0.1-0.6-0.2-0.8c0-0.5-0.1-0.9-0.1-1.4c-0.2-0.3,0-0.8-0.3-1.1
				c0-0.2,0-0.5-0.1-0.7c-0.2-0.4,0-0.8-0.3-1.2c0-0.2-0.1-0.5-0.1-0.7c-0.3-0.3,0-0.8-0.3-1.2c0-0.2-0.1-0.5-0.1-0.7
				c-0.2-0.4,0-0.8-0.3-1.2c0-0.3-0.1-0.7-0.1-1c-0.1-0.3-0.1-0.6-0.2-0.8c0-0.3-0.1-0.7-0.1-1c-0.1-0.3-0.1-0.6-0.2-0.8
				c0-0.1,0-0.2-0.1-0.3c-0.7-0.6-0.4-1.5-0.7-2.3c0-0.4-0.1-0.7-0.1-1.1c-0.1-0.2-0.1-0.5-0.3-0.7c0-0.2-0.1-0.5-0.1-0.7
				c-0.1-0.2,0-0.5-0.3-0.7c-0.3-0.9-0.5-1.7-0.8-2.6c-0.2-0.2-0.1-0.5-0.3-0.8c-0.3-1-0.6-1.9-0.9-2.9c-0.6-0.4-0.3-1.1-0.6-1.5
				c0-0.1,0-0.2-0.1-0.3c-1.2-1.9-1.9-3.9-2.5-6l0,0c-0.5-2.3-1.7-4.2-2.8-6.2c-4.1-7.9-9.3-15.1-14.7-22.1
				c-5.3-6.9-11.3-13.1-17.6-19c-3.4-3.2-7.1-6.2-10.5-9.5c-4.6-4.4-9.7-8.2-14.7-12.1c-3.2-2.4-6.7-4.7-10.3-6.7
				c-4.3-2.5-8.8-4.8-13.3-6.8c-4.6-2.1-9.4-3.7-14.3-5.3c-3.5-1.1-7-2-10.5-2.9c-5.2-1.3-10.4-2.2-15.7-3.1
				c-5-0.8-10.1-1.6-15.2-1.6c-9.5-0.1-19-0.7-28.4,0.8c-3.4,0.6-6.8,1.1-10.2,1.2c-3.9,0.2-7.6,1.2-11.3,2.1
				c-3.9,0.9-7.7,2.2-11.7,2.9c-1.1,0.2-2.3,0.2-3.3,0.9c0.7,0,1.4,0,2-0.1c6.5-0.9,12.9-1.7,19.4-1.7c5.4,0,10.9-0.2,16.4,0.2
				c4.1,0.3,8.2,0.8,12.3,1.2c5.2,0.6,10.4,1.6,15.4,2.9c5.3,1.4,10.5,3,15.6,5c10.6,4,20.6,9.2,29.9,15.6l0,0c0,0,0,0,0,0
				c0.4,0.4,0.7,0.9,1.1,1.2c6.4,4.4,12,9.6,17.4,15.1c5.7,5.8,10,12.6,14.2,19.5c2.7,4.5,5,9.2,7,14c1.3,3.1,2.5,6.2,3.2,9.3
				c0.7,3.1,1.5,6.1,2.1,9.3c0.8,4.9,1.1,9.9,1.5,14.9c0.4,5.1-0.3,10.2-1.1,15.3c-1.1,7.3-3,14.5-6,21.2
				c-2.7,6.3-5.9,12.3-9.6,18.1c-5.4,8.4-11.7,16.2-18.6,23.5c-7.6,8-15.8,15.3-24.4,22.1c-2.3,1.8-4.4,4-7.1,5.2
				c-1-0.2-1.5,0.7-2.1,1.2c-0.3,0.4-0.8,0.6-1.2,0.8c-0.4,0.2-0.9,0.5-1.3,0.8c-15.2,11.1-31.4,20.7-48.3,29.1
				c-1.3,0.7-2.7,1.1-4,1.8c-0.9,0.5-1.6,1-1.2,2.2c0.3,0.4,0.7,0.5,1.2,0.2c0,0.3,0.1,0.6,0.4,0.8c2.1,1.3,4.1,3,6.5,3.6
				c0.1,0,0.1,0,0.2,0c1.4,0.7,2.7,1.5,4.1,2.2c1.1-0.3,1.7,0.3,2.2,1.1c3.3,1.7,6.7,3.3,10.2,4.8c7.3,3.1,14.7,5.5,22.4,7.4
				c4.8,1.2,9.7,2,14.7,2.6c6,0.7,12.1,0.6,18.2,0.4c2-0.1,3.9-0.2,5.9-0.5c8.3-1.2,16.4-3.3,24.1-6.6c4.7-2,9.3-4.1,13.4-7.3
				c0.2-0.3,0.5-0.2,0.7-0.4c0.3-0.4,0.7-0.4,1.1-0.3c0.3-0.1,0.5-0.2,0.8-0.4l0,0c0,0,0.1,0,0.1-0.1c0,0,0-0.1,0-0.1
				c0.4-0.1,0.8-0.3,1.2-0.2c2.4-1.1,4.4-2.8,5.7-5.1c1-0.8,2.1-1.5,3-2.4c5.3-4.9,10.4-9.9,15-15.5c2.3-2.9,4.8-5.6,6.6-8.8
				c0.2-0.4,0.4-0.8,0.7-1.1c0.1-0.1,0.2-0.3,0.3-0.4c0.3-0.3,0.5-0.7,0.7-1.1c0.1-0.2,0.2-0.3,0.4-0.5c0.3-0.1,0.2-0.5,0.4-0.6l0,0
				c0.2-0.4,0.5-0.7,0.7-1.1c0.3-0.4,0.5-0.8,0.8-1.2c0.5-0.5,0.7-1.3,1.1-1.8l0,0c0.2-0.2,0.1-0.5,0.4-0.7c0.1-0.2,0.2-0.3,0.4-0.5
				c0.3-0.1,0.2-0.5,0.4-0.6c0.2-0.2,0.1-0.5,0.3-0.8l0,0c0.2-0.2,0.1-0.6,0.4-0.7c0.2-0.4,0.5-0.8,0.7-1.2c0.2-0.2,0.2-0.5,0.4-0.7
				c0.2-0.2,0.1-0.6,0.4-0.7c0.2-0.2,0.1-0.6,0.4-0.8c0.2-0.4,0.5-0.8,0.7-1.2c0.2-0.2,0.2-0.4,0.3-0.7c0.1-0.1,0.1-0.2,0.2-0.3
				c-0.1-0.5,0.2-0.9,0.6-1.2c0.2-0.3,0.3-0.7,0.5-1c0.9-1.9,1.1-4,2.6-5.6l0,0c0.2-0.2,0.1-0.5,0.3-0.8c0.1-0.1,0.1-0.2,0.1-0.4
				c0.4-0.8,0.9-1.5,1.2-2.3c2-5.1,3.7-10.3,5-15.6c2.9-11.2,4.4-22.6,4.6-34.2C-1177.3,148.4-1177.3,143.3-1177.7,138.3z"/>
		</g>
		<path class="st18" d="M-1192.1,96.5c-0.1,0-0.3-0.1-0.3-0.1c0-0.1,0.1-0.2,0.1-0.3c0.1,0,0.3,0.1,0.3,0.1
			C-1191.9,96.3-1192,96.4-1192.1,96.5z"/>
		<path class="st22" d="M-1304.7,222.2c0.2-0.4,0.6-0.7,1.1-0.7C-1303.8,222-1304.2,222.2-1304.7,222.2z"/>
		<path class="st30" d="M-1342.6,389.4c-1,0-2,0-3,0.1c-2,0.2-3.9,0.2-5.9,0c-1.5,0-3-0.1-4.5-0.1c-0.3-0.3-0.7-0.1-1.1-0.3
			c-6.8-0.7-13.3-2.3-19.4-5.4c-0.7-0.4-1.5-0.6-2.2-0.9c0-1.1,0.5-1.3,1.4-0.8c1.8,1,3.9,1.6,5.8,2.4c9,3.6,18.5,4.2,28,3.5
			c9.9-0.7,19.2-3.7,27.8-8.6c7.3-4.2,13.8-9.6,19.2-16.1c0.3-0.3,0.6-0.6,0.9-0.9c0.2-0.2,0.3-0.3,0.6-0.3
			c-2.6,3.8-5.8,7.1-9.2,10.3c-5,4.6-10.6,8.3-16.7,11.2c-5.6,2.7-11.6,4.5-17.8,5.4C-1339.9,388.9-1341.3,388.7-1342.6,389.4z"/>
		<path class="st24" d="M-1391.3,424.2c-0.2,0.8-0.9,1.3-1.7,1.4c-0.6,0.1-0.8-0.5-0.8-1c0.1-0.8,0.6-1.4,1.4-1.4
			C-1391.8,423.2-1391.4,423.5-1391.3,424.2z"/>
		<path class="st21" d="M-1229,309.6c0,0.2,0,0.5-0.4,0.5c-0.2,0-0.4-0.2-0.5-0.4c-0.1-0.2,0.1-0.5,0.4-0.5
			C-1229.3,309.2-1229.1,309.3-1229,309.6z"/>
		<path class="st21" d="M-1222.4,335.6c-0.1-0.1-0.1-0.2-0.1-0.3c0-0.1,0.1-0.2,0.1-0.3c0.1,0.1,0.1,0.2,0.1,0.3
			C-1222.3,335.4-1222.4,335.5-1222.4,335.6z"/>
		<path class="st21" d="M-1224.6,323.6c0,0-0.1,0.1-0.1,0.1c0,0-0.1-0.1-0.1-0.1c0,0,0.1-0.1,0.1-0.1
			C-1224.6,323.5-1224.6,323.6-1224.6,323.6z"/>
		<path class="st31" d="M-1347.4,262.7c1.1-0.9,1.8-0.5,2.2,1.1C-1346,263.4-1346.7,263.1-1347.4,262.7z"/>
		<path class="st31" d="M-1236.4,264.6c0.1-0.3,0.4-0.4,0.7-0.4C-1235.8,264.5-1236.1,264.5-1236.4,264.6z"/>
		<path class="st32" d="M-1345.6,464.8c-0.7-0.1-1.5,0.3-2.2-0.3C-1347.1,464.5-1346.3,464.1-1345.6,464.8z"/>
		<path class="st32" d="M-1249.4,424.3c0,0.3,0,0.5-0.3,0.7C-1249.7,424.7-1249.7,424.5-1249.4,424.3z"/>
		<path class="st23" d="M-1351.5,389.4c2,0,3.9,0,5.9,0C-1347.6,389.9-1349.5,389.9-1351.5,389.4z"/>
		<path class="st23" d="M-1357.1,389.1c0.4-0.1,0.8-0.1,1.1,0.3C-1356.4,389.4-1356.8,389.4-1357.1,389.1z"/>
	</g>
	<linearGradient id="SVGID_16_" gradientUnits="userSpaceOnUse" x1="-1310.2834" y1="380.0125" x2="-1241.2855" y2="480.0825">
		<stop  offset="0" style="stop-color:#078280"/>
		<stop  offset="1" style="stop-color:#86CED2"/>
	</linearGradient>
	<path class="st33" d="M-1407.6,352c0,0,12.3,37,61.6,37s61.9-41,61.6-49.3c-1.4-35.6-20.5-43.3-20.5-43.3s29.7-5.9,38.3-11.5
		c8.3-5.3,20.5-10.9,20.5-10.9s45.2,67,19.2,119.1c-27.4,54.7-72.5,79.4-124.5,72.5c-52-6.8-72.5-46.5-76.6-71.2
		C-1433.6,361.9-1407.6,352-1407.6,352z"/>
</g>
<g>
	<path class="st34" d="M10.2,251.6c56.6-18.1,121.8,0.2,171.5,91.2c4.5,8.7,10.3,6.6,9.9-2.3c1.1-9.2-0.4-47.9-24.5-82.1
		c-0.8-1.8,0.1-2.7,1.4-4c5.7-4.2,47.6-13.1,94.4-46.6c3.6-2.5,19.3-9.9,16.7-32.1c-7.8-54.8-51.5-91.9-63.7-99.4
		c-12.2-7.5-10.8,5.6-10.6,7.6c-2.2,42.4-14.9,104.6-60.2,147.1c-16.2-4.6-21.9-16-21.9-16s61.1-79.7,45.3-143.4
		c-4.2-17.9-9.1-24.2-29-20.2c-20,4.1-67.4,19-67.4,19s-7.4,2.8-1.6,10.3c5.8,7.5,33.9,35.8,11,114.9c-20.8-7.1-66.6-15.8-71.2-3.3
		C5.6,204.6-10.2,251,10.2,251.6z"/>
	<path class="st34" d="M499.3,231c-12.8,12.2-83.7,65.3-110.5,72.7c-26.8,7.5-31.5-6.1-27.6-9.4c2.4-2.4,62.1-66.9-4.3-32.2
		c-24.3,8.9-48-10.8-53-28.5c-10.5-33.7-10.2-40.4-34.1-19.8c-12.9,10.6-35.8,22.1-44.5,25.2c-26.2,6.2-36.6,35.6-15.4,38.5
		c21.2,2.9,32.7-0.4,27,5.7c-5.8,6.1-14.4,11.6-4.7,16.9c9.7,5.3,28.2,18.4,29.2,19.7c1.1,1.2,9.6,2.3,12.1-3.9
		c2.5-6.2,0.3-8-1.4-8.9c-1.7-0.9,0.2-3.7,4.2-3.3c4.1,0.5,13.7-3.3,16.1-5c2.3-1.7,29.8-6.2,36.5,3.3c-7.6,2.4-9.8-2.6-20.6,1.2
		c-5.9,2.3-20.2,4.1-27,19.4c-5,11.4-6.9,34.9-27.5,28.3c-20.6-6.7-41.8-13-38.5-33.7c3.3-20.8,1.9-34.2-9.7-35
		c-0.6,3.3,2.8,22.5,0,38.4c-4.7,11.9-6.3,19,3,26.2c9.2,7.2,78.1,39.7,118.5,82.9c15.5,15.7,23.3-3.8,11.9-12.9
		c-3.1-3.4-17.8-16.5-17.5-21.1c0.3-4.5,8.7,4.2,11.9,7.5c-8.4-17,10-38.7,29.7-14.2c8,7.8,2.4,26.1-4.5,31.1
		c7.5-7.5-5.6-26.3-16-15.8c-5.4,5.2,9.5,17,12.8,19.9c3.3,2.9,15.2-7,19.4-13.8c3.1-4.3,7.5-7.9,13.8-35.4c2-7.1,4.7-9.7,11-16.1
		c6.4-6.4,99.3-84.2,109.6-117C515,224.9,512.1,218.9,499.3,231z M257,309c-1.2-1.4-4.6-5-14.5-10.5c-2.3-6,3-6.8,5.7-6.7
		c2.7,0.1,13.2,7.4,16.1,12.7C265.1,311,258.3,310.3,257,309z"/>
</g>
</svg>
