<?xml version="1.0" encoding="utf-8"?>
<!-- Generator: Adobe Illustrator 22.1.0, SVG Export Plug-In . SVG Version: 6.00 Build 0)  -->
<svg version="1.1" id="Layer_1" xmlns="http://www.w3.org/2000/svg" xmlns:xlink="http://www.w3.org/1999/xlink" x="0px" y="0px"
	 viewBox="0 0 512 512" style="enable-background:new 0 0 512 512;" xml:space="preserve">
<style type="text/css">
	.st0{fill:url(#SVGID_1_);}
	.st1{fill:url(#SVGID_2_);}
</style>
<g>
	<linearGradient id="SVGID_1_" gradientUnits="userSpaceOnUse" x1="266.6806" y1="-54.0937" x2="146.6866" y2="199.3936">
		<stop  offset="0" style="stop-color:#FFFFFF"/>
		<stop  offset="1" style="stop-color:#5C5C5C"/>
	</linearGradient>
	<path class="st0" d="M10.2,264.8c56.6-18.1,121.8,0.2,171.5,91.2c4.5,8.7,10.3,6.6,9.9-2.3c1.1-9.2-0.4-47.9-24.5-82.1
		c-0.8-1.8,0.1-2.7,1.4-4c5.7-4.2,47.6-13.1,94.4-46.6c3.6-2.5,19.3-9.9,16.7-32.1c-7.8-54.8-51.5-91.9-63.7-99.4
		c-12.2-7.5-10.8,5.6-10.6,7.6c-2.2,42.4-14.9,104.6-60.2,147.1c-16.2-4.6-21.9-16-21.9-16s61.1-79.7,45.3-143.4
		c-4.2-17.9-9.1-24.2-29-20.2c-20,4.1-67.4,19-67.4,19s-7.4,2.8-1.6,10.3c5.8,7.5,33.9,35.8,11,114.9c-20.8-7.1-66.6-15.8-71.2-3.3
		C5.6,217.7-10.2,264.1,10.2,264.8z"/>
	<linearGradient id="SVGID_2_" gradientUnits="userSpaceOnUse" x1="461.3792" y1="38.0713" x2="341.3852" y2="291.5586">
		<stop  offset="0" style="stop-color:#FFFFFF"/>
		<stop  offset="1" style="stop-color:#5C5C5C"/>
	</linearGradient>
	<path class="st1" d="M499.3,244.2c-12.8,12.2-83.7,65.3-110.5,72.7c-26.8,7.5-31.5-6.1-27.6-9.4c2.4-2.4,62.1-66.9-4.3-32.2
		c-24.3,8.9-48-10.8-53-28.5c-10.5-33.7-10.2-40.4-34.1-19.8c-12.9,10.6-35.8,22.1-44.5,25.2c-26.2,6.2-36.6,35.6-15.4,38.5
		c21.2,2.9,32.7-0.4,27,5.7c-5.8,6.1-14.4,11.6-4.7,16.9c9.7,5.3,28.2,18.4,29.2,19.7c1.1,1.2,9.6,2.3,12.1-3.9
		c2.5-6.2,0.3-8-1.4-8.9c-1.7-0.9,0.2-3.7,4.2-3.3c4.1,0.5,13.7-3.3,16.1-5c2.3-1.7,29.8-6.2,36.5,3.3c-7.6,2.4-9.8-2.6-20.6,1.2
		c-5.9,2.3-20.2,4.1-27,19.4c-5,11.4-6.9,34.9-27.5,28.3c-20.6-6.7-41.8-13-38.5-33.7c3.3-20.8,1.9-34.2-9.7-35
		c-0.6,3.3,2.8,22.5,0,38.4c-4.7,11.9-6.3,19,3,26.2c9.2,7.2,78.1,39.7,118.5,82.9c15.5,15.7,23.3-3.8,11.9-12.9
		c-3.1-3.4-17.8-16.5-17.5-21.1c0.3-4.5,8.7,4.2,11.9,7.5c-8.4-17,10-38.7,29.7-14.2c8,7.8,2.4,26.1-4.5,31.1
		c7.5-7.5-5.6-26.3-16-15.8c-5.4,5.2,9.5,17,12.8,19.9c3.3,2.9,15.2-7,19.4-13.8c3.1-4.3,7.5-7.9,13.8-35.4c2-7.1,4.7-9.7,11-16.1
		c6.4-6.4,99.3-84.2,109.6-117C515,238,512.1,232,499.3,244.2z M257,322.1c-1.2-1.4-4.6-5-14.5-10.5c-2.3-6,3-6.8,5.7-6.7
		c2.7,0.1,13.2,7.4,16.1,12.7C265.1,324.1,258.3,323.5,257,322.1z"/>
</g>
</svg>
