<?xml version="1.0" encoding="utf-8"?>
<!-- Generator: Adobe Illustrator 22.1.0, SVG Export Plug-In . SVG Version: 6.00 Build 0)  -->
<svg version="1.1" id="Layer_1" xmlns="http://www.w3.org/2000/svg" xmlns:xlink="http://www.w3.org/1999/xlink" x="0px" y="0px"
	 viewBox="0 0 512 512" style="enable-background:new 0 0 512 512;" xml:space="preserve">
<style type="text/css">
	.st0{fill:#E23D3B;}
</style>
<g>
	<path class="st0" d="M463.2,177.8c24.1,4.1,43.7,7,48.1,16.1c5,10.3-21.1,10.9-34.3,11.2c-63.1,1.2-101.3,2.3-103.3,21.7
		c-2.3,25,27,50.2,56.1,85.4c26.7,32.3,56.9,64,48.1,93.6c-10.9,37-60.8,44.6-108.6,44.6c-45.8,0-88.9-6.8-107.1-10
		c-22.6-4.1-19.4-14.1-13.2-17.3c6.8-3.5,45.2-3.8,71.9-5c22-1.2,86-1.2,96-16.1c12.3-17.9-17.6-49.3-45.2-81.6
		c-34.3-40.5-71.9-82.5-52-113C345.5,168.1,421,170.8,463.2,177.8"/>
	<path class="st0" d="M153.6,243.3c39.6-2.1,88.1,4.1,115.1,22.6c13.5,9.1,22.9,26.1,17.3,45.8c-15.6,55.2-74,122.1-203.7,173.5
		c-41.1,16.4-73.7,22.6-80.7,18.2c-7.3-4.7,14.1-41.1,20.5-53.4c20.8-39.3,46.7-77.5,71.9-112.4c9.4-12.9,23.5-35.2,36.7-33.5
		c11.7,1.8-2.1,25.2-10.9,40.5c-15,25.2-56.4,95.7-42.9,99.8c30.2,9.4,172-87.5,151.2-141.2c-9.7-25-71.3-27.3-110.1-27.3
		c-17.6,0-56.1,3.8-58.4-8.5C57.3,256.2,118.3,245,153.6,243.3"/>
	<path class="st0" d="M260.4,7.6c47.8-2.1,104.2,7.3,114.8,39c17.3,51.7-70.2,127.1-146.5,164.1c-18.8,9.1-29.9,11.7-34.6,10.9
		c-4.4-0.6-5.3-5-3.8-7.6c2.6-5.6,15-16.4,31.4-28.5C307.4,122.6,335.5,76.8,319.1,58c-10.3-12-54-20.3-98.9-20.3
		c-12.3,0-44.6,2.6-47.8-7.9C169.7,21.1,212.9,9.6,260.4,7.6"/>
</g>
</svg>
